999
dxfrw 0.6.3
  0
SECTION
  2
HEADER
  9
$ACADVER
  1
AC1021
  9
$DWGCODEPAGE
  3
ANSI_1252
  9
$INSBASE
 10
0
 20
0
 30
0
  9
$EXTMIN
 10
24.25844839400949
 20
10.26455085940632
 30
0
  9
$EXTMAX
 10
864.1824207476544
 20
826.0183706442033
 30
0
  9
$LIMMIN
 10
0
 20
0
  9
$LIMMAX
 10
12
 20
9
  9
$ORTHOMODE
 70
    0
  9
$REGENMODE
 70
    1
  9
$FILLMODE
 70
    1
  9
$QTEXTMODE
 70
    0
  9
$MIRRTEXT
 70
    0
  9
$LTSCALE
 40
1
  9
$ATTMODE
 70
    1
  9
$TEXTSIZE
 40
0.2
  9
$TRACEWID
 40
0.05
  9
$TEXTSTYLE
  7
Standard
  9
$CLAYER
  8
0
  9
$CELTYPE
  6
ByLayer
  9
$CECOLOR
 62
  256
  9
$CELTSCALE
 40
1
  9
$DISPSILH
 70
    0
  9
$DIMSCALE
 40
1
  9
$DIMASZ
 40
0.18
  9
$DIMEXO
 40
0.0625
  9
$DIMDLI
 40
0.38
  9
$DIMRND
 40
0
  9
$DIMDLE
 40
0
  9
$DIMEXE
 40
0.18
  9
$DIMTP
 40
0
  9
$DIMTM
 40
0
  9
$DIMTXT
 40
0.18
  9
$DIMCEN
 40
0.09
  9
$DIMTSZ
 40
0
  9
$DIMTOL
 70
    0
  9
$DIMLIM
 70
    0
  9
$DIMTIH
 70
    1
  9
$DIMTOH
 70
    1
  9
$DIMSE1
 70
    0
  9
$DIMSE2
 70
    0
  9
$DIMTAD
 70
    0
  9
$DIMZIN
 70
    0
  9
$DIMBLK
  1

  9
$DIMASO
 70
    1
  9
$DIMSHO
 70
    1
  9
$DIMPOST
  1

  9
$DIMAPOST
  1

  9
$DIMALT
 70
    0
  9
$DIMALTD
 70
    2
  9
$DIMALTF
 40
25.4
  9
$DIMLFAC
 40
1
  9
$DIMTOFL
 70
    0
  9
$DIMTVP
 40
0
  9
$DIMTIX
 70
    0
  9
$DIMSOXD
 70
    0
  9
$DIMSAH
 70
    0
  9
$DIMBLK1
  1

  9
$DIMBLK2
  1

  9
$DIMSTYLE
  2
Standard
  9
$DIMCLRD
 70
    0
  9
$DIMCLRE
 70
    0
  9
$DIMCLRT
 70
    0
  9
$DIMTFAC
 40
1
  9
$DIMGAP
 40
0.09
  9
$DIMJUST
 70
    0
  9
$DIMSD1
 70
    0
  9
$DIMSD2
 70
    0
  9
$DIMTOLJ
 70
    1
  9
$DIMTZIN
 70
    0
  9
$DIMALTZ
 70
    0
  9
$DIMALTTZ
 70
    0
  9
$DIMUPT
 70
    0
  9
$DIMDEC
 70
    4
  9
$DIMTDEC
 70
    4
  9
$DIMALTU
 70
    2
  9
$DIMALTTD
 70
    2
  9
$DIMTXSTY
  7
Standard
  9
$DIMAUNIT
 70
    0
  9
$DIMADEC
 70
    0
  9
$DIMALTRND
 40
0
  9
$DIMAZIN
 70
    0
  9
$DIMDSEP
 70
   46
  9
$DIMATFIT
 70
    3
  9
$DIMFRAC
 70
    0
  9
$DIMLDRBLK
  1

  9
$DIMLUNIT
 70
    2
  9
$DIMLWD
 70
   -2
  9
$DIMLWE
 70
   -2
  9
$DIMTMOVE
 70
    0
  9
$DIMFXL
 40
1
  9
$DIMFXLON
 70
    0
  9
$DIMJOGANG
 40
0.7853981633974483
  9
$DIMTFILL
 70
    0
  9
$DIMTFILLCLR
 70
    0
  9
$DIMARCSYM
 70
    0
  9
$DIMLTYPE
  6

  9
$DIMLTEX1
  6

  9
$DIMLTEX2
  6

  9
$LUNITS
 70
    2
  9
$LUPREC
 70
    4
  9
$SKETCHINC
 40
0.1
  9
$FILLETRAD
 40
0
  9
$AUNITS
 70
    0
  9
$AUPREC
 70
    0
  9
$MENU
  1
.
  9
$ELEVATION
 40
0
  9
$PELEVATION
 40
0
  9
$THICKNESS
 40
0
  9
$LIMCHECK
 70
    0
  9
$CHAMFERA
 40
0
  9
$CHAMFERB
 40
0
  9
$CHAMFERC
 40
0
  9
$CHAMFERD
 40
0
  9
$SKPOLY
 70
    0
  9
$USRTIMER
 70
    1
  9
$ANGBASE
 50
0
  9
$ANGDIR
 70
    0
  9
$PDMODE
 70
    0
  9
$PDSIZE
 40
0
  9
$PLINEWID
 40
0
  9
$SPLFRAME
 70
    0
  9
$SPLINETYPE
 70
    6
  9
$SPLINESEGS
 70
    8
  9
$HANDSEED
  5
20000
  9
$SURFTAB1
 70
    6
  9
$SURFTAB2
 70
    6
  9
$SURFTYPE
 70
    6
  9
$SURFU
 70
    6
  9
$SURFV
 70
    6
  9
$UCSBASE
  2

  9
$UCSNAME
  2

  9
$UCSORG
 10
0
 20
0
 30
0
  9
$UCSXDIR
 10
1
 20
0
 30
0
  9
$UCSYDIR
 10
0
 20
1
 30
0
  9
$UCSORTHOREF
  2

  9
$UCSORTHOVIEW
 70
    0
  9
$UCSORGTOP
 10
0
 20
0
 30
0
  9
$UCSORGBOTTOM
 10
0
 20
0
 30
0
  9
$UCSORGLEFT
 10
0
 20
0
 30
0
  9
$UCSORGRIGHT
 10
0
 20
0
 30
0
  9
$UCSORGFRONT
 10
0
 20
0
 30
0
  9
$UCSORGBACK
 10
0
 20
0
 30
0
  9
$PUCSBASE
  2

  9
$PUCSNAME
  2

  9
$PUCSORG
 10
0
 20
0
 30
0
  9
$PUCSXDIR
 10
1
 20
0
 30
0
  9
$PUCSYDIR
 10
0
 20
1
 30
0
  9
$PUCSORTHOREF
  2

  9
$PUCSORTHOVIEW
 70
    0
  9
$PUCSORGTOP
 10
0
 20
0
 30
0
  9
$PUCSORGBOTTOM
 10
0
 20
0
 30
0
  9
$PUCSORGLEFT
 10
0
 20
0
 30
0
  9
$PUCSORGRIGHT
 10
0
 20
0
 30
0
  9
$PUCSORGFRONT
 10
0
 20
0
 30
0
  9
$PUCSORGBACK
 10
0
 20
0
 30
0
  9
$USERI1
 70
    0
  9
$USERI2
 70
    0
  9
$USERI3
 70
    0
  9
$USERI4
 70
    0
  9
$USERI5
 70
    0
  9
$USERR1
 40
0
  9
$USERR2
 40
0
  9
$USERR3
 40
0
  9
$USERR4
 40
0
  9
$USERR5
 40
0
  9
$WORLDVIEW
 70
    1
  9
$SHADEDGE
 70
    3
  9
$SHADEDIF
 70
   70
  9
$TILEMODE
 70
    1
  9
$MAXACTVP
 70
   64
  9
$PINSBASE
 10
0
 20
0
 30
0
  9
$PLIMCHECK
 70
    0
  9
$PEXTMIN
 10
0
 20
0
 30
0
  9
$PEXTMAX
 10
0
 20
0
 30
0
  9
$GRIDMODE
 70
    1
  9
$SNAPSTYLE
 70
    0
  9
$PLIMMIN
 10
0
 20
0
  9
$PLIMMAX
 10
12
 20
9
  9
$UNITMODE
 70
    0
  9
$VISRETAIN
 70
    1
  9
$PLINEGEN
 70
    0
  9
$PSLTSCALE
 70
    1
  9
$TREEDEPTH
 70
 3020
  9
$CMLSTYLE
  2
Standard
  9
$CMLJUST
 70
    0
  9
$CMLSCALE
 40
1
  9
$PROXYGRAPHICS
 70
    1
  9
$MEASUREMENT
 70
    0
  9
$CELWEIGHT
370
   -1
  9
$ENDCAPS
280
    0
  9
$JOINSTYLE
280
    0
  9
$LWDISPLAY
290
    0
  9
$INSUNITS
 70
    1
  9
$HYPERLINKBASE
  1

  9
$STYLESHEET
  1

  9
$XEDIT
290
    1
  9
$CEPSNTYPE
380
    0
  9
$PSTYLEMODE
290
    1
  9
$EXTNAMES
290
    1
  9
$PSVPSCALE
 40
0
  9
$OLESTARTUP
290
    0
  9
$SORTENTS
280
  127
  9
$INDEXCTL
280
    0
  9
$HIDETEXT
280
    1
  9
$XCLIPFRAME
290
    2
  9
$HALOGAP
280
    0
  9
$OBSCOLOR
 70
  257
  9
$OBSLTYPE
280
    0
  9
$INTERSECTIONDISPLAY
280
    0
  9
$INTERSECTIONCOLOR
 70
  257
  9
$DIMASSOC
280
    2
  9
$PROJECTNAME
  1

  9
$CAMERADISPLAY
290
    0
  9
$LENSLENGTH
 40
50
  9
$CAMERAHEIGHT
 40
0
  9
$STEPSPERSEC
 40
2
  9
$STEPSIZE
 40
6
  9
$3DDWFPREC
 40
2
  9
$PSOLWIDTH
 40
0.25
  9
$PSOLHEIGHT
 40
4
  9
$LOFTANG1
 40
1.570796326794896
  9
$LOFTANG2
 40
1.570796326794896
  9
$LOFTMAG1
 40
0
  9
$LOFTMAG2
 40
0
  9
$LOFTPARAM
 70
    7
  9
$LOFTNORMALS
280
    1
  9
$LATITUDE
 40
37.795
  9
$LONGITUDE
 40
-122.394
  9
$NORTHDIRECTION
 40
0
  9
$TIMEZONE
 70
-8000
  9
$LIGHTGLYPHDISPLAY
280
    1
  9
$TILEMODELIGHTSYNCH
280
    1
  9
$SOLIDHIST
280
    0
  9
$SHOWHIST
280
    1
  9
$DWFFRAME
280
    2
  9
$DGNFRAME
280
    0
  9
$REALWORLDSCALE
290
    1
  9
$INTERFERECOLOR
 62
    1
  9
$CSHADOW
280
    0
  9
$SHADOWPLANELOCATION
 40
0
  0
ENDSEC
  0
SECTION
  2
CLASSES
  0
ENDSEC
  0
SECTION
  2
TABLES
  0
TABLE
  2
VPORT
  5
8
330
0
100
AcDbSymbolTable
 70
    1
  0
VPORT
  5
31
330
2
100
AcDbSymbolTableRecord
100
AcDbViewportTableRecord
  2
*ACTIVE
 70
    0
 10
0
 20
0
 11
1
 21
1
 12
175.0424200220861
 22
189.1179960650992
 13
0
 23
0
 14
10
 24
10
 15
10
 25
10
 16
0
 26
0
 36
1
 17
0
 27
0
 37
0
 40
344.3102447444746
 41
1.232704402515723
 42
50
 43
0
 44
0
 50
0
 51
0
 71
    0
 72
  100
 73
    1
 74
    3
 75
    0
 76
    1
 77
    0
 78
    0
281
    0
 65
    1
110
0
120
0
130
0
111
1
121
0
131
0
112
0
122
1
132
0
 79
    0
146
0
348
10020
 60
    7
 61
    5
292
1
282
    1
141
0
142
0
 63
  250
421
3358443
  0
ENDTAB
  0
TABLE
  2
LTYPE
  5
5
330
0
100
AcDbSymbolTable
 70
    4
  0
LTYPE
  5
14
330
5
100
AcDbSymbolTableRecord
100
AcDbLinetypeTableRecord
  2
ByBlock
 70
    0
  3

 72
   65
 73
    0
 40
0
  0
LTYPE
  5
15
330
5
100
AcDbSymbolTableRecord
100
AcDbLinetypeTableRecord
  2
ByLayer
 70
    0
  3

 72
   65
 73
    0
 40
0
  0
LTYPE
  5
16
330
5
100
AcDbSymbolTableRecord
100
AcDbLinetypeTableRecord
  2
Continuous
 70
    0
  3
Solid line
 72
   65
 73
    0
 40
0
  0
LTYPE
  5
32
330
5
100
AcDbSymbolTableRecord
100
AcDbLinetypeTableRecord
  2
DOT
 70
    0
  3
Dot . . . . . . . . . . . . . . . . . . . . . .
 72
   65
 73
    2
 40
6.35
 49
0
 74
    0
 49
-6.35
 74
    0
  0
LTYPE
  5
33
330
5
100
AcDbSymbolTableRecord
100
AcDbLinetypeTableRecord
  2
DOTTINY
 70
    0
  3
Dot (.15x) .....................................
 72
   65
 73
    2
 40
0.9525
 49
0
 74
    0
 49
-0.9525
 74
    0
  0
LTYPE
  5
34
330
5
100
AcDbSymbolTableRecord
100
AcDbLinetypeTableRecord
  2
DOT2
 70
    0
  3
Dot (.5x) .....................................
 72
   65
 73
    2
 40
3.175
 49
0
 74
    0
 49
-3.175
 74
    0
  0
LTYPE
  5
35
330
5
100
AcDbSymbolTableRecord
100
AcDbLinetypeTableRecord
  2
DOTX2
 70
    0
  3
Dot (2x) .  .  .  .  .  .  .  .  .  .  .  .  .
 72
   65
 73
    2
 40
12.7
 49
0
 74
    0
 49
-12.7
 74
    0
  0
LTYPE
  5
36
330
5
100
AcDbSymbolTableRecord
100
AcDbLinetypeTableRecord
  2
DASHED
 70
    0
  3
Dashed _ _ _ _ _ _ _ _ _ _ _ _ _ _ _ _ _
 72
   65
 73
    2
 40
19.05
 49
12.7
 74
    0
 49
-6.35
 74
    0
  0
LTYPE
  5
37
330
5
100
AcDbSymbolTableRecord
100
AcDbLinetypeTableRecord
  2
DASHEDTINY
 70
    0
  3
Dashed (.15x) _ _ _ _ _ _ _ _ _ _ _ _ _ _ _ _ _
 72
   65
 73
    2
 40
2.8575
 49
1.905
 74
    0
 49
-0.9525
 74
    0
  0
LTYPE
  5
38
330
5
100
AcDbSymbolTableRecord
100
AcDbLinetypeTableRecord
  2
DASHED2
 70
    0
  3
Dashed (.5x) _ _ _ _ _ _ _ _ _ _ _ _ _ _ _ _ _
 72
   65
 73
    2
 40
9.524999999999999
 49
6.35
 74
    0
 49
-3.175
 74
    0
  0
LTYPE
  5
39
330
5
100
AcDbSymbolTableRecord
100
AcDbLinetypeTableRecord
  2
DASHEDX2
 70
    0
  3
Dashed (2x) ____  ____  ____  ____  ____  ___
 72
   65
 73
    2
 40
38.09999999999999
 49
25.4
 74
    0
 49
-12.7
 74
    0
  0
LTYPE
  5
3A
330
5
100
AcDbSymbolTableRecord
100
AcDbLinetypeTableRecord
  2
DASHDOT
 70
    0
  3
Dash dot __ . __ . __ . __ . __ . __ . __ . __
 72
   65
 73
    4
 40
25.4
 49
12.7
 74
    0
 49
-6.35
 74
    0
 49
0
 74
    0
 49
-6.35
 74
    0
  0
LTYPE
  5
3B
330
5
100
AcDbSymbolTableRecord
100
AcDbLinetypeTableRecord
  2
DASHDOTTINY
 70
    0
  3
Dash dot (.15x) _._._._._._._._._._._._._._._.
 72
   65
 73
    4
 40
3.81
 49
1.905
 74
    0
 49
-0.9525
 74
    0
 49
0
 74
    0
 49
-0.9525
 74
    0
  0
LTYPE
  5
3C
330
5
100
AcDbSymbolTableRecord
100
AcDbLinetypeTableRecord
  2
DASHDOT2
 70
    0
  3
Dash dot (.5x) _._._._._._._._._._._._._._._.
 72
   65
 73
    4
 40
12.7
 49
6.35
 74
    0
 49
-3.175
 74
    0
 49
0
 74
    0
 49
-3.175
 74
    0
  0
LTYPE
  5
3D
330
5
100
AcDbSymbolTableRecord
100
AcDbLinetypeTableRecord
  2
DASHDOTX2
 70
    0
  3
Dash dot (2x) ____  .  ____  .  ____  .  ___
 72
   65
 73
    4
 40
50.8
 49
25.4
 74
    0
 49
-12.7
 74
    0
 49
0
 74
    0
 49
-12.7
 74
    0
  0
LTYPE
  5
3E
330
5
100
AcDbSymbolTableRecord
100
AcDbLinetypeTableRecord
  2
DIVIDE
 70
    0
  3
Divide ____ . . ____ . . ____ . . ____ . . ____
 72
   65
 73
    6
 40
31.75
 49
12.7
 74
    0
 49
-6.35
 74
    0
 49
0
 74
    0
 49
-6.35
 74
    0
 49
0
 74
    0
 49
-6.35
 74
    0
  0
LTYPE
  5
3F
330
5
100
AcDbSymbolTableRecord
100
AcDbLinetypeTableRecord
  2
DIVIDETINY
 70
    0
  3
Divide (.15x) __..__..__..__..__..__..__..__.._
 72
   65
 73
    6
 40
4.7625
 49
1.905
 74
    0
 49
-0.9525
 74
    0
 49
0
 74
    0
 49
-0.9525
 74
    0
 49
0
 74
    0
 49
-0.9525
 74
    0
  0
LTYPE
  5
40
330
5
100
AcDbSymbolTableRecord
100
AcDbLinetypeTableRecord
  2
DIVIDE2
 70
    0
  3
Divide (.5x) __..__..__..__..__..__..__..__.._
 72
   65
 73
    6
 40
15.875
 49
6.35
 74
    0
 49
-3.175
 74
    0
 49
0
 74
    0
 49
-3.175
 74
    0
 49
0
 74
    0
 49
-3.175
 74
    0
  0
LTYPE
  5
41
330
5
100
AcDbSymbolTableRecord
100
AcDbLinetypeTableRecord
  2
DIVIDEX2
 70
    0
  3
Divide (2x) ________  .  .  ________  .  .  _
 72
   65
 73
    6
 40
63.5
 49
25.4
 74
    0
 49
-12.7
 74
    0
 49
0
 74
    0
 49
-12.7
 74
    0
 49
0
 74
    0
 49
-12.7
 74
    0
  0
LTYPE
  5
42
330
5
100
AcDbSymbolTableRecord
100
AcDbLinetypeTableRecord
  2
BORDER
 70
    0
  3
Border __ __ . __ __ . __ __ . __ __ . __ __ .
 72
   65
 73
    6
 40
44.45
 49
12.7
 74
    0
 49
-6.35
 74
    0
 49
12.7
 74
    0
 49
-6.35
 74
    0
 49
0
 74
    0
 49
-6.35
 74
    0
  0
LTYPE
  5
43
330
5
100
AcDbSymbolTableRecord
100
AcDbLinetypeTableRecord
  2
BORDERTINY
 70
    0
  3
Border (.15x) __.__.__.__.__.__.__.__.__.__.__.
 72
   65
 73
    6
 40
6.6675
 49
1.905
 74
    0
 49
-0.9525
 74
    0
 49
1.905
 74
    0
 49
-0.9525
 74
    0
 49
0
 74
    0
 49
-0.9525
 74
    0
  0
LTYPE
  5
44
330
5
100
AcDbSymbolTableRecord
100
AcDbLinetypeTableRecord
  2
BORDER2
 70
    0
  3
Border (.5x) __.__.__.__.__.__.__.__.__.__.__.
 72
   65
 73
    6
 40
22.225
 49
6.35
 74
    0
 49
-3.175
 74
    0
 49
6.35
 74
    0
 49
-3.175
 74
    0
 49
0
 74
    0
 49
-3.175
 74
    0
  0
LTYPE
  5
45
330
5
100
AcDbSymbolTableRecord
100
AcDbLinetypeTableRecord
  2
BORDERX2
 70
    0
  3
Border (2x) ____  ____  .  ____  ____  .  ___
 72
   65
 73
    6
 40
88.89999999999999
 49
25.4
 74
    0
 49
-12.7
 74
    0
 49
25.4
 74
    0
 49
-12.7
 74
    0
 49
0
 74
    0
 49
-12.7
 74
    0
  0
LTYPE
  5
46
330
5
100
AcDbSymbolTableRecord
100
AcDbLinetypeTableRecord
  2
CENTER
 70
    0
  3
Center ____ _ ____ _ ____ _ ____ _ ____ _ ____
 72
   65
 73
    4
 40
50.8
 49
31.75
 74
    0
 49
-6.35
 74
    0
 49
6.35
 74
    0
 49
-6.35
 74
    0
  0
LTYPE
  5
47
330
5
100
AcDbSymbolTableRecord
100
AcDbLinetypeTableRecord
  2
CENTERTINY
 70
    0
  3
Center (.15x) ___ _ ___ _ ___ _ ___ _ ___ _ ___
 72
   65
 73
    4
 40
7.619999999999999
 49
4.7625
 74
    0
 49
-0.9525
 74
    0
 49
0.9525
 74
    0
 49
-0.9525
 74
    0
  0
LTYPE
  5
48
330
5
100
AcDbSymbolTableRecord
100
AcDbLinetypeTableRecord
  2
CENTER2
 70
    0
  3
Center (.5x) ___ _ ___ _ ___ _ ___ _ ___ _ ___
 72
   65
 73
    4
 40
28.575
 49
19.05
 74
    0
 49
-3.175
 74
    0
 49
3.175
 74
    0
 49
-3.175
 74
    0
  0
LTYPE
  5
49
330
5
100
AcDbSymbolTableRecord
100
AcDbLinetypeTableRecord
  2
CENTERX2
 70
    0
  3
Center (2x) ________  __  ________  __  _____
 72
   65
 73
    4
 40
101.6
 49
63.5
 74
    0
 49
-12.7
 74
    0
 49
12.7
 74
    0
 49
-12.7
 74
    0
  0
ENDTAB
  0
TABLE
  2
LAYER
  5
2
330
0
100
AcDbSymbolTable
 70
    1
  0
LAYER
  5
10
330
2
100
AcDbSymbolTableRecord
100
AcDbLayerTableRecord
  2
0
 70
    0
 62
    7
  6
CONTINUOUS
370
   -3
390
F
  0
LAYER
  5
4A
330
2
100
AcDbSymbolTableRecord
100
AcDbLayerTableRecord
  2
DOORS
 70
    0
 62
   16
  6
CONTINUOUS
370
   18
390
F
  0
LAYER
  5
4B
330
2
100
AcDbSymbolTableRecord
100
AcDbLayerTableRecord
  2
PARTITION
 70
    0
 62
    7
  6
CONTINUOUS
370
    9
390
F
  0
LAYER
  5
4C
330
2
100
AcDbSymbolTableRecord
100
AcDbLayerTableRecord
  2
PARTN
 70
    0
 62
    7
  6
CONTINUOUS
370
   25
390
F
  0
LAYER
  5
4D
330
2
100
AcDbSymbolTableRecord
100
AcDbLayerTableRecord
  2
TABLE
 70
    0
 62
  251
  6
CONTINUOUS
370
    9
390
F
  0
LAYER
  5
4E
330
2
100
AcDbSymbolTableRecord
100
AcDbLayerTableRecord
  2
door
 70
    0
 62
    7
  6
CONTINUOUS
370
   15
390
F
  0
LAYER
  5
4F
330
2
100
AcDbSymbolTableRecord
100
AcDbLayerTableRecord
  2
half part.
 70
    0
 62
    7
  6
CONTINUOUS
370
   25
390
F
  0
LAYER
  5
50
330
2
100
AcDbSymbolTableRecord
100
AcDbLayerTableRecord
  2
pre-hat
 70
    0
 62
   21
  6
CONTINUOUS
370
   18
390
F
  0
LAYER
  5
51
330
2
100
AcDbSymbolTableRecord
100
AcDbLayerTableRecord
  2
win
 70
    0
 62
    5
  6
CONTINUOUS
370
   25
390
F
  0
ENDTAB
  0
TABLE
  2
STYLE
  5
3
330
0
100
AcDbSymbolTable
 70
    3
  0
STYLE
  5
52
330
2
100
AcDbSymbolTableRecord
100
AcDbTextStyleTableRecord
  2
Standard
 70
    0
 40
0
 41
1
 50
0
 71
    0
 42
1
  3
txt
  4

  0
ENDTAB
  0
TABLE
  2
VIEW
  5
6
330
0
100
AcDbSymbolTable
 70
    0
  0
ENDTAB
  0
TABLE
  2
UCS
  5
7
330
0
100
AcDbSymbolTable
 70
    0
  0
ENDTAB
  0
TABLE
  2
APPID
  5
9
330
0
100
AcDbSymbolTable
 70
    1
  0
APPID
  5
12
330
9
100
AcDbSymbolTableRecord
100
AcDbRegAppTableRecord
  2
ACAD
 70
    0
  0
APPID
  5
53
330
9
100
AcDbSymbolTableRecord
100
AcDbRegAppTableRecord
  2
LibreCad
 70
    0
  0
ENDTAB
  0
TABLE
  2
DIMSTYLE
  5
A
330
0
100
AcDbSymbolTable
 70
    1
100
AcDbDimStyleTable
 71
    1
  0
DIMSTYLE
105
54
330
A
100
AcDbSymbolTableRecord
100
AcDbDimStyleTableRecord
  2
Standard
 70
    0
 40
1
 41
0.18
 42
0.0625
 43
0.38
 44
0.18
 45
0
 46
0
 47
0
 48
0
 49
1
140
0.18
141
0.09
142
0
143
25.4
144
1
145
0
146
1
147
0.09
148
0
 71
    0
 72
    0
 73
    1
 74
    1
 75
    0
 76
    0
 77
    0
 78
    0
 79
    0
170
    0
171
    2
172
    0
173
    0
174
    0
175
    0
176
    0
177
    0
178
    0
179
    0
271
    4
272
    4
273
    2
274
    2
275
    0
276
    0
277
    2
278
   46
279
    0
280
    0
281
    0
282
    0
283
    1
284
    0
285
    0
286
    0
288
    0
289
    3
340
Standard
341

371
   -2
372
   -2
  0
ENDTAB
  0
TABLE
  2
BLOCK_RECORD
  5
1
330
0
100
AcDbSymbolTable
 70
    2
  0
BLOCK_RECORD
  5
1F
330
1
100
AcDbSymbolTableRecord
100
AcDbBlockTableRecord
  2
*Model_Space
 70
    0
280
    1
281
    0
  0
BLOCK_RECORD
  5
1E
330
1
100
AcDbSymbolTableRecord
100
AcDbBlockTableRecord
  2
*Paper_Space
 70
    0
280
    1
281
    0
  0
BLOCK_RECORD
  5
55
330
1
100
AcDbSymbolTableRecord
100
AcDbBlockTableRecord
  2
_Open90
 70
    0
280
    1
281
    0
  0
BLOCK_RECORD
  5
58
330
1
100
AcDbSymbolTableRecord
100
AcDbBlockTableRecord
  2
_Open30
 70
    0
280
    1
281
    0
  0
BLOCK_RECORD
  5
5B
330
1
100
AcDbSymbolTableRecord
100
AcDbBlockTableRecord
  2
A$C5C157668
 70
    0
280
    1
281
    0
  0
ENDTAB
  0
ENDSEC
  0
SECTION
  2
BLOCKS
  0
BLOCK
  5
20
330
1F
100
AcDbEntity
  8
0
100
AcDbBlockBegin
  2
*Model_Space
 70
    0
 10
0
 20
0
 30
0
  3
*Model_Space
  1

  0
ENDBLK
  5
21
330
1F
100
AcDbEntity
  8
0
100
AcDbBlockEnd
  0
BLOCK
  5
1C
330
1B
100
AcDbEntity
  8
0
100
AcDbBlockBegin
  2
*Paper_Space
 70
    0
 10
0
 20
0
 30
0
  3
*Paper_Space
  1

  0
ENDBLK
  5
1D
330
1F
100
AcDbEntity
  8
0
100
AcDbBlockEnd
  0
BLOCK
  5
56
330
55
100
AcDbEntity
  8
0
100
AcDbBlockBegin
  2
_Open90
 70
    0
 10
0
 20
0
  3
_Open90
  1

  0
LINE
  5
5E
100
AcDbEntity
  8
0
  6
ByBlock
 62
    0
370
   -2
100
AcDbLine
 10
-0.5
 20
0.5
 11
0
 21
0
  0
LINE
  5
5F
100
AcDbEntity
  8
0
  6
ByBlock
 62
    0
370
   -2
100
AcDbLine
 10
0
 20
0
 11
-0.5
 21
-0.5
  0
LINE
  5
60
100
AcDbEntity
  8
0
  6
ByBlock
 62
    0
370
   -2
100
AcDbLine
 10
0
 20
0
 11
-1
 21
0
  0
ENDBLK
  5
57
330
55
100
AcDbEntity
  8
0
100
AcDbBlockEnd
  0
BLOCK
  5
59
330
58
100
AcDbEntity
  8
0
100
AcDbBlockBegin
  2
_Open30
 70
    0
 10
0
 20
0
  3
_Open30
  1

  0
LINE
  5
61
100
AcDbEntity
  8
0
  6
ByBlock
 62
    0
370
   -2
100
AcDbLine
 10
-1
 20
0.26794919
 11
0
 21
0
  0
LINE
  5
62
100
AcDbEntity
  8
0
  6
ByBlock
 62
    0
370
   -2
100
AcDbLine
 10
0
 20
0
 11
-1
 21
-0.26794919
  0
LINE
  5
63
100
AcDbEntity
  8
0
  6
ByBlock
 62
    0
370
   -2
100
AcDbLine
 10
0
 20
0
 11
-1
 21
0
  0
ENDBLK
  5
5A
330
58
100
AcDbEntity
  8
0
100
AcDbBlockEnd
  0
BLOCK
  5
5C
330
5B
100
AcDbEntity
  8
0
100
AcDbBlockBegin
  2
A$C5C157668
 70
    0
 10
0
 20
0
  3
A$C5C157668
  1

  0
LINE
  5
64
100
AcDbEntity
  8
0
  6
ByLayer
 62
  256
370
   -1
100
AcDbLine
 10
194.1321753190423
 20
739.2538184147269
 11
194.1321753190423
 21
806.753820515326
  0
LINE
  5
65
100
AcDbEntity
  8
0
  6
ByLayer
 62
  256
370
   -1
100
AcDbLine
 10
204.1321753190459
 20
738.2538184147242
 11
204.1321753190423
 21
806.7538205153278
  0
LINE
  5
66
100
AcDbEntity
  8
0
  6
ByLayer
 62
  256
370
   -1
100
AcDbLine
 10
350.2540982750324
 20
69.25301002530341
 11
350.2540982750361
 21
7.305334293e-07
  0
LINE
  5
67
100
AcDbEntity
  8
0
  6
ByLayer
 62
  256
370
   -1
100
AcDbLine
 10
839.9239749287916
 20
815.4852140783695
 11
194.1321753190423
 21
815.4852140783651
  0
LINE
  5
68
100
AcDbEntity
  8
0
  6
ByLayer
 62
  256
370
   -1
100
AcDbLine
 10
839.9239749287916
 20
810.9852140783695
 11
443.6321753190459
 21
810.9852140783725
  0
LINE
  5
69
100
AcDbEntity
  8
0
  6
ByLayer
 62
  256
370
   -1
100
AcDbLine
 10
839.9239749287916
 20
733.7538184147251
 11
443.6321753190459
 21
733.7538184147251
  0
LINE
  5
6A
100
AcDbEntity
  8
0
  6
ByLayer
 62
  256
370
   -1
100
AcDbLine
 10
839.9239749287916
 20
729.2538184147251
 11
453.6321753190532
 21
729.253818414727
  0
LINE
  5
6B
100
AcDbEntity
  8
door
  6
ByLayer
 62
  256
370
   -1
100
AcDbLine
 10
251.6321753190532
 20
806.7538205153287
 11
204.1321753190423
 21
806.7538205153278
  0
LINE
  5
6C
100
AcDbEntity
  8
0
  6
ByLayer
 62
  256
370
   -1
100
AcDbLine
 10
271.1321753190496
 20
806.753820515326
 11
204.1321753190423
 21
806.7538205153269
  0
LINE
  5
6D
100
AcDbEntity
  8
PARTN
  6
ByLayer
 62
  256
370
   -1
100
AcDbLine
 10
443.6321753190532
 20
810.9852140783725
 11
275.6321753190532
 21
810.9852140783713
  0
LINE
  5
6E
100
AcDbEntity
  8
0
  6
ByLayer
 62
  256
370
   -1
100
AcDbLine
 10
194.1321753190423
 20
815.7538205153269
 11
194.1321753190423
 21
738.2538184147315
  0
LINE
  5
6F
100
AcDbEntity
  8
0
  6
ByLayer
 62
  256
370
   -1
100
AcDbLine
 10
204.1321753190459
 20
806.7538205153269
 11
204.1321753190423
 21
738.2538184147297
  0
LINE
  5
70
100
AcDbEntity
  8
door
  6
ByLayer
 62
  256
370
   -1
100
AcDbLine
 10
251.6321753190532
 20
738.2538184147287
 11
204.1321753190423
 21
738.2538184147297
  0
LINE
  5
71
100
AcDbEntity
  8
0
  6
ByLayer
 62
  256
370
   -1
100
AcDbLine
 10
271.1321753190532
 20
738.2538184147306
 11
84.67233858958571
 21
738.2538184147334
  0
LINE
  5
72
100
AcDbEntity
  8
0
  6
ByLayer
 62
  256
370
   -1
100
AcDbLine
 10
563.1321753190531
 20
105.7538173026614
 11
504.1321753190532
 21
46.75381730266145
  0
LINE
  5
73
100
AcDbEntity
  8
0
  6
ByLayer
 62
  256
370
   -1
100
AcDbLine
 10
553.1321753190532
 20
188.7538173026614
 11
579.1321753190532
 21
188.7538173026614
  0
LINE
  5
74
100
AcDbEntity
  8
0
  6
ByLayer
 62
  256
370
   -1
100
AcDbLine
 10
553.1321753190532
 20
239.7538173026596
 11
579.1321753190532
 21
239.7538173026596
  0
LINE
  5
75
100
AcDbEntity
  8
0
  6
ByLayer
 62
  256
370
   -1
100
AcDbLine
 10
553.1321753190532
 20
109.8959529263911
 11
499.9900396953271
 21
56.75381730266145
  0
LINE
  5
76
100
AcDbEntity
  8
0
  6
ByLayer
 62
  256
370
   -1
100
AcDbLine
 10
553.1321753190532
 20
120.9714051947876
 11
553.1321753190532
 21
186.4355407469802
  0
LINE
  5
77
100
AcDbEntity
  8
0
  6
ByLayer
 62
  256
370
   -1
100
AcDbLine
 10
553.1321753190532
 20
109.8959529263911
 11
553.1321753190532
 21
188.7538173026614
  0
LINE
  5
78
100
AcDbEntity
  8
0
  6
ByLayer
 62
  256
370
   -1
100
AcDbLine
 10
563.1321753190531
 20
117.4355407469802
 11
563.1321753190531
 21
176.4355407469802
  0
LINE
  5
79
100
AcDbEntity
  8
0
  6
ByLayer
 62
  256
370
   -1
100
AcDbLine
 10
563.1321753190531
 20
105.7538173026578
 11
563.1321753190531
 21
178.7538173026614
  0
LINE
  5
7A
100
AcDbEntity
  8
0
  6
ByLayer
 62
  256
370
   -1
100
AcDbLine
 10
579.1321753190532
 20
188.7538173026614
 11
579.1321753190532
 21
237.4355407469784
  0
LINE
  5
7B
100
AcDbEntity
  8
0
  6
ByLayer
 62
  256
370
   -1
100
AcDbLine
 10
579.1321753190532
 20
188.7538173026614
 11
579.1321753190532
 21
239.7538173026596
  0
LINE
  5
7C
100
AcDbEntity
  8
0
  6
ByLayer
 62
  256
370
   -1
100
AcDbLine
 10
563.1321753190531
 20
178.7538173026614
 11
589.1321753190531
 21
178.7538173026614
  0
LINE
  5
7D
100
AcDbEntity
  8
0
  6
ByLayer
 62
  256
370
   -1
100
AcDbLine
 10
26.00000257514694
 20
178.7538173034281
 11
2.5751469366e-06
 21
178.753817303429
  0
LINE
  5
7E
100
AcDbEntity
  8
0
  6
ByLayer
 62
  256
370
   -1
100
AcDbLine
 10
36.00000257514694
 20
239.7538173034273
 11
10.00000257514694
 21
239.7538173034273
  0
LINE
  5
7F
100
AcDbEntity
  8
0
  6
ByLayer
 62
  256
370
   -1
100
AcDbLine
 10
36.00000257514694
 20
188.7538173034281
 11
10.00000257514694
 21
188.753817303429
  0
LINE
  5
80
100
AcDbEntity
  8
0
  6
ByLayer
 62
  256
370
   -1
100
AcDbLine
 10
10.00000257514694
 20
188.753817303429
 11
10.00000257514694
 21
239.7538173034273
  0
LINE
  5
81
100
AcDbEntity
  8
0
  6
ByLayer
 62
  256
370
   -1
100
AcDbLine
 10
10.00000257514694
 20
188.753817303429
 11
10.00000257514694
 21
237.435540747746
  0
LINE
  5
82
100
AcDbEntity
  8
0
  6
ByLayer
 62
  256
370
   -1
100
AcDbLine
 10
26.00000257514694
 20
106.3851490148281
 11
26.00000257514694
 21
178.7538173034281
  0
LINE
  5
83
100
AcDbEntity
  8
0
  6
ByLayer
 62
  256
370
   -1
100
AcDbLine
 10
36.00000257515058
 20
110.5272846385542
 11
36.00000257514694
 21
188.7538173034281
  0
LINE
  5
84
100
AcDbEntity
  8
0
  6
ByLayer
 62
  256
370
   -1
100
AcDbLine
 10
26.00000257514694
 20
106.3851490148281
 11
85.63133428731452
 21
46.75381730266145
  0
LINE
  5
85
100
AcDbEntity
  8
0
  6
ByLayer
 62
  256
370
   -1
100
AcDbLine
 10
36.00000257515058
 20
110.5272846385542
 11
89.81447421331177
 21
56.71281300039391
  0
LINE
  5
86
100
AcDbEntity
  8
0
  6
ByLayer
 62
  256
370
   -1
100
AcDbLine
 10
275.6321753190532
 20
46.75381730266235
 11
233.7634218875392
 21
46.75381730266053
  0
LINE
  5
87
100
AcDbEntity
  8
0
  6
ByLayer
 62
  256
370
   -1
100
AcDbLine
 10
224.7634218875428
 20
46.75381730266053
 11
85.63133428731452
 21
46.75381730266145
  0
LINE
  5
88
100
AcDbEntity
  8
0
  6
ByLayer
 62
  256
370
   -1
100
AcDbLine
 10
499.9900396953125
 20
56.75381730266145
 11
353.2338260917277
 21
56.75381730266145
  0
LINE
  5
89
100
AcDbEntity
  8
0
  6
ByLayer
 62
  256
370
   -1
100
AcDbLine
 10
504.1321753190532
 20
46.75381730266145
 11
359.3407878530306
 21
46.75381730266145
  0
LINE
  5
8A
100
AcDbEntity
  8
0
  6
ByLayer
 62
  256
370
   -1
100
AcDbLine
 10
563.1321753190531
 20
249.7538173026596
 11
553.1321753190532
 21
249.7538173026596
  0
LINE
  5
8B
100
AcDbEntity
  8
0
  6
ByLayer
 62
  256
370
   -1
100
AcDbLine
 10
563.1321753190531
 20
440.435540746982
 11
553.1321753190532
 21
440.435540746982
  0
LINE
  5
8C
100
AcDbEntity
  8
0
  6
ByLayer
 62
  256
370
   -1
100
AcDbLine
 10
563.1321753190531
 20
310.7538173026596
 11
553.1321753190532
 21
310.7538173026596
  0
LINE
  5
8D
100
AcDbEntity
  8
0
  6
ByLayer
 62
  256
370
   -1
100
AcDbLine
 10
553.1321753190532
 20
249.7538173026596
 11
589.1321753190531
 21
249.7538173026596
  0
LINE
  5
8E
100
AcDbEntity
  8
0
  6
ByLayer
 62
  256
370
   -1
100
AcDbLine
 10
553.1321753190532
 20
371.7538173026596
 11
579.1321753190532
 21
371.7538173026596
  0
LINE
  5
8F
100
AcDbEntity
  8
0
  6
ByLayer
 62
  256
370
   -1
100
AcDbLine
 10
553.1321753190532
 20
320.7538173026596
 11
579.1321753190532
 21
320.7538173026596
  0
LINE
  5
90
100
AcDbEntity
  8
0
  6
ByLayer
 62
  256
370
   -1
100
AcDbLine
 10
553.1321753190532
 20
381.7538173026596
 11
589.1321753190531
 21
381.7538173026596
  0
LINE
  5
91
100
AcDbEntity
  8
0
  6
ByLayer
 62
  256
370
   -1
100
AcDbLine
 10
553.1321753190532
 20
371.7538173026596
 11
553.1321753190532
 21
452.7538173026596
  0
LINE
  5
92
100
AcDbEntity
  8
0
  6
ByLayer
 62
  256
370
   -1
100
AcDbLine
 10
563.1321753190531
 20
249.7538173026596
 11
563.1321753190531
 21
308.4355407469784
  0
LINE
  5
93
100
AcDbEntity
  8
0
  6
ByLayer
 62
  256
370
   -1
100
AcDbLine
 10
563.1321753190531
 20
249.7538173026596
 11
563.1321753190531
 21
310.7538173026596
  0
LINE
  5
94
100
AcDbEntity
  8
0
  6
ByLayer
 62
  256
370
   -1
100
AcDbLine
 10
563.1321753190531
 20
381.7538173026596
 11
563.1321753190531
 21
438.1172641912971
  0
LINE
  5
95
100
AcDbEntity
  8
0
  6
ByLayer
 62
  256
370
   -1
100
AcDbLine
 10
563.1321753190531
 20
381.7538173026596
 11
563.1321753190531
 21
440.4355407469783
  0
LINE
  5
96
100
AcDbEntity
  8
0
  6
ByLayer
 62
  256
370
   -1
100
AcDbLine
 10
579.1321753190532
 20
320.7538173026596
 11
579.1321753190532
 21
369.4355407469784
  0
LINE
  5
97
100
AcDbEntity
  8
0
  6
ByLayer
 62
  256
370
   -1
100
AcDbLine
 10
579.1321753190532
 20
320.7538173026596
 11
579.1321753190532
 21
371.7538173026596
  0
LINE
  5
98
100
AcDbEntity
  8
0
  6
ByLayer
 62
  256
370
   -1
100
AcDbLine
 10
589.1321753190531
 20
310.7538173026596
 11
589.1321753190531
 21
379.4355407469784
  0
LINE
  5
99
100
AcDbEntity
  8
0
  6
ByLayer
 62
  256
370
   -1
100
AcDbLine
 10
589.1321753190531
 20
310.7538173026596
 11
589.1321753190531
 21
381.7538173026596
  0
LINE
  5
9A
100
AcDbEntity
  8
0
  6
ByLayer
 62
  256
370
   -1
100
AcDbLine
 10
563.1321753190531
 20
310.7538173026596
 11
589.1321753190531
 21
310.7538173026596
  0
LINE
  5
9B
100
AcDbEntity
  8
0
  6
ByLayer
 62
  256
370
   -1
100
AcDbLine
 10
453.6321753190532
 20
729.522424851687
 11
453.6321753190532
 21
594.7538123958702
  0
LINE
  5
9C
100
AcDbEntity
  8
0
  6
ByLayer
 62
  256
370
   -1
100
AcDbLine
 10
443.6321753190532
 20
734.022424851687
 11
443.6321753190532
 21
594.753817302665
  0
LINE
  5
9D
100
AcDbEntity
  8
0
  6
ByLayer
 62
  256
370
   -1
100
AcDbLine
 10
443.6321753190604
 20
590.2538123958702
 11
443.6321753190532
 21
585.7538123958702
  0
LINE
  5
9E
100
AcDbEntity
  8
0
  6
ByLayer
 62
  256
370
   -1
100
AcDbLine
 10
36.00000257514694
 20
381.7538173034273
 11
2.5751469366e-06
 21
381.7538173034273
  0
LINE
  5
9F
100
AcDbEntity
  8
0
  6
ByLayer
 62
  256
370
   -1
100
AcDbLine
 10
26.00000257514694
 20
310.7538173034273
 11
2.5751469366e-06
 21
310.7538173034273
  0
LINE
  5
A0
100
AcDbEntity
  8
0
  6
ByLayer
 62
  256
370
   -1
100
AcDbLine
 10
36.00000257514694
 20
320.7538173034273
 11
10.00000257514694
 21
320.7538173034273
  0
LINE
  5
A1
100
AcDbEntity
  8
0
  6
ByLayer
 62
  256
370
   -1
100
AcDbLine
 10
36.00000257514694
 20
371.7538173034272
 11
10.00000257514694
 21
371.7538173034272
  0
LINE
  5
A2
100
AcDbEntity
  8
0
  6
ByLayer
 62
  256
370
   -1
100
AcDbLine
 10
36.00000257514694
 20
511.435540747746
 11
10.00000257514694
 21
511.435540747746
  0
LINE
  5
A3
100
AcDbEntity
  8
0
  6
ByLayer
 62
  256
370
   -1
100
AcDbLine
 10
36.00000257514694
 20
521.435540747746
 11
2.5751469366e-06
 21
521.435540747746
  0
LINE
  5
A4
100
AcDbEntity
  8
0
  6
ByLayer
 62
  256
370
   -1
100
AcDbLine
 10
36.00000257514694
 20
452.7538173034272
 11
10.00000257514694
 21
452.7538173034272
  0
LINE
  5
A5
100
AcDbEntity
  8
0
  6
ByLayer
 62
  256
370
   -1
100
AcDbLine
 10
36.00000257514694
 20
440.435540747746
 11
2.5751469366e-06
 21
440.435540747746
  0
LINE
  5
A6
100
AcDbEntity
  8
0
  6
ByLayer
 62
  256
370
   -1
100
AcDbLine
 10
36.00000257514694
 20
249.7538173034272
 11
2.5751469366e-06
 21
249.7538173034272
  0
LINE
  5
A7
100
AcDbEntity
  8
0
  6
ByLayer
 62
  256
370
   -1
100
AcDbLine
 10
2.5751469366e-06
 20
310.7538173034273
 11
2.5751469366e-06
 21
381.7538173034273
  0
LINE
  5
A8
100
AcDbEntity
  8
0
  6
ByLayer
 62
  256
370
   -1
100
AcDbLine
 10
2.5751469366e-06
 20
310.7538173034273
 11
2.5751469366e-06
 21
379.435540747746
  0
LINE
  5
A9
100
AcDbEntity
  8
0
  6
ByLayer
 62
  256
370
   -1
100
AcDbLine
 10
10.00000257514694
 20
320.7538173034273
 11
10.00000257514694
 21
371.7538173034272
  0
LINE
  5
AA
100
AcDbEntity
  8
0
  6
ByLayer
 62
  256
370
   -1
100
AcDbLine
 10
10.00000257514694
 20
320.7538173034273
 11
10.00000257514694
 21
369.435540747746
  0
LINE
  5
AB
100
AcDbEntity
  8
0
  6
ByLayer
 62
  256
370
   -1
100
AcDbLine
 10
10.00000257514694
 20
452.7538173034272
 11
10.00000257514694
 21
511.435540747746
  0
LINE
  5
AC
100
AcDbEntity
  8
0
  6
ByLayer
 62
  256
370
   -1
100
AcDbLine
 10
10.00000257514694
 20
452.7538173034272
 11
10.00000257514694
 21
511.435540747746
  0
LINE
  5
AD
100
AcDbEntity
  8
0
  6
ByLayer
 62
  256
370
   -1
100
AcDbLine
 10
2.5751469366e-06
 20
442.7538173034272
 11
2.5751469366e-06
 21
521.435540747746
  0
LINE
  5
AE
100
AcDbEntity
  8
0
  6
ByLayer
 62
  256
370
   -1
100
AcDbLine
 10
2.5751469366e-06
 20
440.435540747746
 11
2.5751469366e-06
 21
521.435540747746
  0
LINE
  5
AF
100
AcDbEntity
  8
0
  6
ByLayer
 62
  256
370
   -1
100
AcDbLine
 10
26.00000257514694
 20
381.7538173034273
 11
26.00000257514694
 21
440.435540747746
  0
LINE
  5
B0
100
AcDbEntity
  8
0
  6
ByLayer
 62
  256
370
   -1
100
AcDbLine
 10
26.00000257514694
 20
381.7538173034273
 11
26.00000257514694
 21
438.1172641920648
  0
LINE
  5
B1
100
AcDbEntity
  8
0
  6
ByLayer
 62
  256
370
   -1
100
AcDbLine
 10
36.00000257514694
 20
371.7538173034272
 11
36.00000257514694
 21
452.7538173034272
  0
LINE
  5
B2
100
AcDbEntity
  8
0
  6
ByLayer
 62
  256
370
   -1
100
AcDbLine
 10
26.00000257514694
 20
249.7538173034272
 11
26.00000257514694
 21
310.7538173034273
  0
LINE
  5
B3
100
AcDbEntity
  8
0
  6
ByLayer
 62
  256
370
   -1
100
AcDbLine
 10
26.00000257514694
 20
521.435540747746
 11
36.00000257514694
 21
521.435540747746
  0
LINE
  5
B4
100
AcDbEntity
  8
0
  6
ByLayer
 62
  256
370
   -1
100
AcDbLine
 10
26.00000257514694
 20
249.7538173034272
 11
36.00000257514694
 21
249.7538173034272
  0
LINE
  5
B5
100
AcDbEntity
  8
0
  6
ByLayer
 62
  256
370
   -1
100
AcDbLine
 10
26.00000257514694
 20
249.7538173034272
 11
26.00000257514694
 21
308.435540747746
  0
LINE
  5
B6
100
AcDbEntity
  8
0
  6
ByLayer
 62
  256
370
   -1
100
AcDbLine
 10
36.00000257514694
 20
513.7538173034272
 11
36.00000257514694
 21
659.5706773774527
  0
LINE
  5
B7
100
AcDbEntity
  8
0
  6
ByLayer
 62
  256
370
   -1
100
AcDbLine
 10
36.00000257514694
 20
511.435540747746
 11
36.00000257514694
 21
675.4393467765667
  0
LINE
  5
B8
100
AcDbEntity
  8
0
  6
ByLayer
 62
  256
370
   -1
100
AcDbLine
 10
36.00000257514694
 20
239.7538173034273
 11
36.00000257514694
 21
320.7538173034273
  0
LINE
  5
B9
100
AcDbEntity
  8
0
  6
ByLayer
 62
  256
370
   -1
100
AcDbLine
 10
2.5751469366e-06
 20
178.753817303429
 11
2.5751469366e-06
 21
249.7538173034272
  0
LINE
  5
BA
100
AcDbEntity
  8
0
  6
ByLayer
 62
  256
370
   -1
100
AcDbLine
 10
2.5751469366e-06
 20
178.753817303429
 11
2.5751469366e-06
 21
247.435540747746
  0
LINE
  5
BB
100
AcDbEntity
  8
0
  6
ByLayer
 62
  256
370
   -1
100
AcDbLine
 10
36.00000257514694
 20
239.7538173034273
 11
36.00000257514694
 21
318.435540747746
  0
LINE
  5
BC
100
AcDbEntity
  8
0
  6
ByLayer
 62
  256
370
   -1
100
AcDbLine
 10
553.1321753190532
 20
239.7538173026596
 11
553.1321753190532
 21
318.4355407469784
  0
LINE
  5
BD
100
AcDbEntity
  8
0
  6
ByLayer
 62
  256
370
   -1
100
AcDbLine
 10
589.1321753190531
 20
178.7538173026614
 11
589.1321753190531
 21
247.4355407469784
  0
LINE
  5
BE
100
AcDbEntity
  8
0
  6
ByLayer
 62
  256
370
   -1
100
AcDbLine
 10
589.1321753190531
 20
178.7538173026614
 11
589.1321753190531
 21
249.7538173026596
  0
LINE
  5
BF
100
AcDbEntity
  8
0
  6
ByLayer
 62
  256
370
   -1
100
AcDbLine
 10
553.1321753190532
 20
239.7538173026596
 11
553.1321753190532
 21
320.7538173026596
  0
LINE
  5
C0
100
AcDbEntity
  8
0
  6
ByLayer
 62
  256
370
   -1
100
AcDbLine
 10
272.6321753190532
 20
56.71281300039391
 11
89.81447421331177
 21
56.71281300039391
  0
LINE
  5
C1
100
AcDbEntity
  8
0
  6
ByLayer
 62
  256
370
   -1
100
AcDbLine
 10
272.6291444791241
 20
729.2538184147306
 11
89.81447421331177
 21
729.2538184147306
  0
LINE
  5
C2
100
AcDbEntity
  8
0
  6
ByLayer
 62
  256
370
   -1
100
AcDbLine
 10
26.00000257514694
 20
679.5814824002964
 11
84.67233858958571
 21
738.2538184147334
  0
LINE
  5
C3
100
AcDbEntity
  8
0
  6
ByLayer
 62
  256
370
   -1
100
AcDbLine
 10
36.00000257514694
 20
675.4393467765667
 11
89.81447421331177
 21
729.2538184147306
  0
LINE
  5
C4
100
AcDbEntity
  8
TABLE
  6
ByLayer
 62
  256
370
   -1
100
AcDbLine
 10
553.1321753190532
 20
451.4355407469802
 11
553.1321753190532
 21
468.753817302685
  0
LINE
  5
C5
100
AcDbEntity
  8
half part.
  6
ByLayer
 62
  256
370
   -1
100
AcDbLine
 10
355.8893959359521
 20
549.7807499040828
 11
355.8893959359521
 21
525.7538173026505
  0
LINE
  5
C6
100
AcDbEntity
  8
PARTN
  6
ByLayer
 62
  256
370
   -1
100
AcDbLine
 10
355.8893959359521
 20
189.7177589939192
 11
355.8893959359521
 21
216.2799250821727
  0
LINE
  5
C7
100
AcDbEntity
  8
PARTN
  6
ByLayer
 62
  256
370
   -1
100
AcDbLine
 10
355.8893959359484
 20
252.2799250821754
 11
355.8893959359557
 21
480.7538173026332
  0
LINE
  5
C8
100
AcDbEntity
  8
PARTN
  6
ByLayer
 62
  256
370
   -1
100
AcDbLine
 10
352.8893959359521
 20
406.1276453813043
 11
352.8893959359521
 21
483.753817302635
  0
LINE
  5
C9
100
AcDbEntity
  8
PARTN
  6
ByLayer
 62
  256
370
   -1
100
AcDbLine
 10
352.8893959359521
 20
406.1276453813043
 11
352.8893959359521
 21
483.753817302635
  0
LINE
  5
CA
100
AcDbEntity
  8
TABLE
  6
ByLayer
 62
  256
370
   -1
100
AcDbLine
 10
553.1321753190532
 20
451.4355407469802
 11
553.1321753190532
 21
468.753817302685
  0
LINE
  5
CB
100
AcDbEntity
  8
PARTN
  6
ByLayer
 62
  256
370
   -1
100
AcDbLine
 10
355.8893959359521
 20
362.5946790248418
 11
355.8893959359521
 21
369.7538173026996
  0
LINE
  5
CC
100
AcDbEntity
  8
PARTN
  6
ByLayer
 62
  256
370
   -1
100
AcDbLine
 10
352.8893959359448
 20
326.5946790248408
 11
352.8893959359666
 21
406.1276453813052
  0
LINE
  5
CD
100
AcDbEntity
  8
PARTN
  6
ByLayer
 62
  256
370
   -1
100
AcDbLine
 10
355.8893959359521
 20
362.5946790248427
 11
352.8893959359521
 21
362.5946790248427
  0
LINE
  5
CE
100
AcDbEntity
  8
DOORS
  6
ByLayer
 62
  256
370
   -1
100
AcDbLine
 10
352.8893959359521
 20
362.5946790248408
 11
352.8893959359448
 21
326.5946790248408
  0
LINE
  5
CF
100
AcDbEntity
  8
PARTITION
  6
ByLayer
 62
  256
370
   -3
100
AcDbLine
 10
352.9093183817567
 20
256.5889724496947
 11
352.9093183817567
 21
310.5889724496947
  0
LINE
  5
D0
100
AcDbEntity
  8
PARTN
  6
ByLayer
 62
  256
370
   -1
100
AcDbLine
 10
352.8893959359593
 20
189.7177589939192
 11
352.8893959359521
 21
216.2799250821509
  0
LINE
  5
D1
100
AcDbEntity
  8
PARTN
  6
ByLayer
 62
  256
370
   -1
100
AcDbLine
 10
355.8893959359521
 20
214.7185662714364
 11
355.8893959359521
 21
216.2799250821718
  0
LINE
  5
D2
100
AcDbEntity
  8
PARTN
  6
ByLayer
 62
  256
370
   -1
100
AcDbLine
 10
553.1321753207266
 20
483.7538173026441
 11
355.8893959359448
 21
483.753817302635
  0
LINE
  5
D3
100
AcDbEntity
  8
PARTN
  6
ByLayer
 62
  256
370
   -1
100
AcDbLine
 10
553.1321753207193
 20
480.7538173026442
 11
355.8893959359593
 21
480.7538173026341
  0
LINE
  5
D4
100
AcDbEntity
  8
PARTITION
  6
ByLayer
 62
  256
370
   -3
100
AcDbLine
 10
355.8893959359521
 20
519.7538173026351
 11
355.8893959359521
 21
522.7538173026869
  0
LINE
  5
D5
100
AcDbEntity
  8
PARTN
  6
ByLayer
 62
  256
370
   -1
100
AcDbLine
 10
355.8893959359521
 20
519.753817302634
 11
355.8893959359593
 21
549.7807499040836
  0
LINE
  5
D6
100
AcDbEntity
  8
PARTN
  6
ByLayer
 62
  256
370
   -1
100
AcDbLine
 10
352.8893959359521
 20
519.7538173026351
 11
352.8893959359521
 21
549.6485492379516
  0
LINE
  5
D7
100
AcDbEntity
  8
PARTN
  6
ByLayer
 62
  256
370
   -1
100
AcDbLine
 10
352.8893959359521
 20
483.7538173026342
 11
352.8893959359521
 21
549.6485492379516
  0
LINE
  5
D8
100
AcDbEntity
  8
PARTN
  6
ByLayer
 62
  256
370
   -1
100
AcDbLine
 10
355.8893959359448
 20
483.7538173026342
 11
355.8893959359593
 21
549.7807499040836
  0
LINE
  5
D9
100
AcDbEntity
  8
PARTN
  6
ByLayer
 62
  256
370
   -1
100
AcDbLine
 10
352.8893959359521
 20
252.2799250821754
 11
355.8893959359521
 21
252.2799250821754
  0
LINE
  5
DA
100
AcDbEntity
  8
PARTN
  6
ByLayer
 62
  256
370
   -1
100
AcDbLine
 10
352.8893959359521
 20
216.2799250821727
 11
355.8893959359521
 21
216.2799250821727
  0
LINE
  5
DB
100
AcDbEntity
  8
PARTN
  6
ByLayer
 62
  256
370
   -1
100
AcDbLine
 10
352.8893959359521
 20
252.2799250821754
 11
352.8893959359521
 21
326.5946790248417
  0
LINE
  5
DC
100
AcDbEntity
  8
PARTN
  6
ByLayer
 62
  256
370
   -1
100
AcDbLine
 10
352.8893959359521
 20
252.2799250821754
 11
352.8893959359593
 21
362.5946790248427
  0
LINE
  5
DD
100
AcDbEntity
  8
PARTN
  6
ByLayer
 62
  256
370
   -1
100
AcDbLine
 10
553.1321753190532
 20
174.7538173027105
 11
353.1299855125653
 21
174.7538173027114
  0
LINE
  5
DE
100
AcDbEntity
  8
PARTN
  6
ByLayer
 62
  256
370
   -1
100
AcDbLine
 10
553.1321753190459
 20
171.7530100251679
 11
350.129985512558
 21
171.7530100251679
  0
LINE
  5
DF
100
AcDbEntity
  8
PARTN
  6
ByLayer
 62
  256
370
   -1
100
AcDbLine
 10
350.2338260917277
 20
135.7530100252961
 11
350.2338260917277
 21
117.2530100253034
  0
LINE
  5
E0
100
AcDbEntity
  8
PARTN
  6
ByLayer
 62
  256
370
   -1
100
AcDbLine
 10
353.2338260917277
 20
135.7530100252961
 11
353.2338260917277
 21
117.2530100253034
  0
LINE
  5
E1
100
AcDbEntity
  8
PARTN
  6
ByLayer
 62
  256
370
   -1
100
AcDbLine
 10
353.2338260917277
 20
69.25301002530341
 11
350.2338260917277
 21
69.25301002530341
  0
LINE
  5
E2
100
AcDbEntity
  8
PARTN
  6
ByLayer
 62
  256
370
   -1
100
AcDbLine
 10
353.2338260917277
 20
69.25301002530341
 11
353.2338260917277
 21
56.75381730266145
  0
LINE
  5
E3
100
AcDbEntity
  8
win
  6
ByLayer
 62
    5
370
   -1
100
AcDbLine
 10
353.2338260917277
 20
117.2530100253034
 11
353.2338260917277
 21
69.25301002530341
  0
LINE
  5
E4
100
AcDbEntity
  8
win
  6
ByLayer
 62
    5
370
   -1
100
AcDbLine
 10
350.2338260917277
 20
117.2530100253034
 11
350.2338260917277
 21
69.25301002530341
  0
LINE
  5
E5
100
AcDbEntity
  8
PARTN
  6
ByLayer
 62
  256
370
   -1
100
AcDbLine
 10
353.2338260917277
 20
117.2530100253034
 11
350.2338260917277
 21
117.2530100253034
  0
LINE
  5
E6
100
AcDbEntity
  8
PARTN
  6
ByLayer
 62
  256
370
   -1
100
AcDbLine
 10
350.2338260917277
 20
135.7530100252961
 11
353.2338260917277
 21
135.7530100252961
  0
LINE
  5
E7
100
AcDbEntity
  8
PARTN
  6
ByLayer
 62
  256
370
   -1
100
AcDbLine
 10
350.1299855125653
 20
177.7177589939156
 11
350.129985512558
 21
171.7530100251679
  0
LINE
  5
E8
100
AcDbEntity
  8
PARTN
  6
ByLayer
 62
  256
370
   -1
100
AcDbLine
 10
353.1299855125653
 20
177.7177589939137
 11
353.1299855125653
 21
174.7538173027114
  0
LINE
  5
E9
100
AcDbEntity
  8
PARTN
  6
ByLayer
 62
  256
370
   -1
100
AcDbLine
 10
36.00000257515058
 20
588.6949757672609
 11
153.1141537977491
 21
588.6949757672619
  0
LINE
  5
EA
100
AcDbEntity
  8
PARTN
  6
ByLayer
 62
  256
370
   -1
100
AcDbLine
 10
272.6291444791241
 20
633.7512579616259
 11
275.6291444808121
 21
633.7512579616268
  0
LINE
  5
EB
100
AcDbEntity
  8
PARTN
  6
ByLayer
 62
  256
370
   -1
100
AcDbLine
 10
272.6291444791241
 20
633.751257961625
 11
272.6291444791241
 21
729.2538184147306
  0
LINE
  5
EC
100
AcDbEntity
  8
PARTN
  6
ByLayer
 62
  256
370
   -1
100
AcDbLine
 10
275.6291444791386
 20
633.7538123958566
 11
275.6291444791386
 21
711.7538173026868
  0
LINE
  5
ED
100
AcDbEntity
  8
PARTN
  6
ByLayer
 62
  256
370
   -1
100
AcDbLine
 10
275.6291444791386
 20
633.7512579616259
 11
275.6348894314251
 21
810.9852140783725
  0
LINE
  5
EE
100
AcDbEntity
  8
PARTN
  6
ByLayer
 62
  256
370
   -1
100
AcDbLine
 10
172.0996851407071
 20
281.7538173026605
 11
172.0996851407071
 21
187.7177540878711
  0
LINE
  5
EF
100
AcDbEntity
  8
PARTN
  6
ByLayer
 62
  256
370
   -1
100
AcDbLine
 10
172.3320658929551
 20
418.798730053898
 11
172.3320658929551
 21
320.7538173026587
  0
LINE
  5
F0
100
AcDbEntity
  8
PARTN
  6
ByLayer
 62
  256
370
   -1
100
AcDbLine
 10
175.3320658929551
 20
454.798730053897
 11
11.04571544793361
 21
454.798730053897
  0
LINE
  5
F1
100
AcDbEntity
  8
PARTN
  6
ByLayer
 62
  256
370
   -1
100
AcDbLine
 10
175.3320658929551
 20
457.798730053897
 11
11.04571544793361
 21
457.7987300538979
  0
LINE
  5
F2
100
AcDbEntity
  8
PARTN
  6
ByLayer
 62
  256
370
   -1
100
AcDbLine
 10
175.3320658929551
 20
588.69497576726
 11
175.3320658929551
 21
493.7987300538971
  0
LINE
  5
F3
100
AcDbEntity
  8
PARTN
  6
ByLayer
 62
  256
370
   -1
100
AcDbLine
 10
172.3320658929624
 20
588.69497576726
 11
172.3320658929551
 21
493.7987300538962
  0
LINE
  5
F4
100
AcDbEntity
  8
PARTN
  6
ByLayer
 62
  256
370
   -1
100
AcDbLine
 10
36.00000257514694
 20
320.7538173026596
 11
172.3320658929551
 21
320.7538173026587
  0
LINE
  5
F5
100
AcDbEntity
  8
PARTN
  6
ByLayer
 62
  256
370
   -1
100
AcDbLine
 10
36.00000257515058
 20
317.7538173026596
 11
175.3320658929551
 21
317.7538173026623
  0
LINE
  5
F6
100
AcDbEntity
  8
PARTN
  6
ByLayer
 62
  256
370
   -1
100
AcDbLine
 10
153.1141537977491
 20
588.6949757672619
 11
157.1129064218803
 21
588.69497576726
  0
LINE
  5
F7
100
AcDbEntity
  8
PARTN
  6
ByLayer
 62
  256
370
   -1
100
AcDbLine
 10
36.00000257515058
 20
187.7177540878801
 11
156.8805256696323
 21
187.7177540878701
  0
LINE
  5
F8
100
AcDbEntity
  8
PARTN
  6
ByLayer
 62
  256
370
   -1
100
AcDbLine
 10
36.00000257514694
 20
184.717754087882
 11
156.1141537977491
 21
184.7177540878729
  0
LINE
  5
F9
100
AcDbEntity
  8
PARTN
  6
ByLayer
 62
  256
370
   -1
100
AcDbLine
 10
175.3320658929697
 20
278.7538173026578
 11
175.3320658929551
 21
187.7177540878747
  0
LINE
  5
FA
100
AcDbEntity
  8
PARTN
  6
ByLayer
 62
  256
370
   -1
100
AcDbLine
 10
175.3320658929551
 20
418.7987300538952
 11
172.3320658929624
 21
418.7987300538952
  0
LINE
  5
FB
100
AcDbEntity
  8
PARTN
  6
ByLayer
 62
  256
370
   -1
100
AcDbLine
 10
175.3320658929551
 20
493.7987300538971
 11
172.3320658929551
 21
493.7987300538962
  0
LINE
  5
FC
100
AcDbEntity
  8
PARTN
  6
ByLayer
 62
  256
370
   -1
100
AcDbLine
 10
175.3320658929551
 20
418.798730053898
 11
175.3320658929551
 21
317.7538173026623
  0
LINE
  5
FD
100
AcDbEntity
  8
PARTN
  6
ByLayer
 62
  256
370
   -1
100
AcDbLine
 10
175.3320658929551
 20
457.7987300538979
 11
175.3320658929551
 21
454.798730053897
  0
LINE
  5
FE
100
AcDbEntity
  8
PARTN
  6
ByLayer
 62
  256
370
   -1
100
AcDbLine
 10
172.0996851407071
 20
281.7538173026605
 11
272.6321753190459
 21
281.7538173026596
  0
LINE
  5
FF
100
AcDbEntity
  8
PARTN
  6
ByLayer
 62
  256
370
   -1
100
AcDbLine
 10
275.6321753190387
 20
440.666313406099
 11
275.6321753190387
 21
319.588967542878
  0
LINE
  5
100
100
AcDbEntity
  8
PARTN
  6
ByLayer
 62
  256
370
   -1
100
AcDbLine
 10
272.6321753190386
 20
440.666313406099
 11
272.6321753190386
 21
319.588967542878
  0
LINE
  5
101
100
AcDbEntity
  8
PARTN
  6
ByLayer
 62
  256
370
   -1
100
AcDbLine
 10
275.6321753190459
 20
308.588967542878
 11
275.6321753190532
 21
187.717754087872
  0
LINE
  5
102
100
AcDbEntity
  8
PARTN
  6
ByLayer
 62
  256
370
   -1
100
AcDbLine
 10
272.6321753190459
 20
308.588967542878
 11
272.6321753190532
 21
187.717754087872
  0
LINE
  5
103
100
AcDbEntity
  8
PARTN
  6
ByLayer
 62
  256
370
   -1
100
AcDbLine
 10
175.3320658929697
 20
278.7538173026578
 11
272.6321753190459
 21
278.7538173026596
  0
LINE
  5
104
100
AcDbEntity
  8
PARTN
  6
ByLayer
 62
  256
370
   -1
100
AcDbLine
 10
143.9282107885556
 20
148.7177540878729
 11
183.9334962864486
 21
148.717754087872
  0
LINE
  5
105
100
AcDbEntity
  8
PARTN
  6
ByLayer
 62
  256
370
   -1
100
AcDbLine
 10
146.9282134329951
 20
145.717754087871
 11
146.9282918530043
 21
56.75376104726456
  0
LINE
  5
106
100
AcDbEntity
  8
PARTN
  6
ByLayer
 62
  256
370
   -1
100
AcDbLine
 10
275.6321753190532
 20
137.7538173026596
 11
222.9334962864486
 21
137.7538173026596
  0
LINE
  5
107
100
AcDbEntity
  8
PARTN
  6
ByLayer
 62
  256
370
   -1
100
AcDbLine
 10
146.928186076937
 20
184.7177540878738
 11
183.9334962864486
 21
184.7177540878729
  0
LINE
  5
108
100
AcDbEntity
  8
PARTN
  6
ByLayer
 62
  256
370
   -1
100
AcDbLine
 10
156.8805256696323
 20
187.7177540878701
 11
183.9334962864486
 21
187.7177540878738
  0
LINE
  5
109
100
AcDbEntity
  8
PARTN
  6
ByLayer
 62
  256
370
   -1
100
AcDbLine
 10
272.6321753190532
 20
134.7538173026596
 11
219.9334962864487
 21
134.7538173026587
  0
LINE
  5
10A
100
AcDbEntity
  8
PARTN
  6
ByLayer
 62
  256
370
   -1
100
AcDbLine
 10
219.9334962864487
 20
134.7538173026587
 11
219.9334962864487
 21
145.7177540878701
  0
LINE
  5
10B
100
AcDbEntity
  8
PARTN
  6
ByLayer
 62
  256
370
   -1
100
AcDbLine
 10
222.9334962864486
 20
137.7538173026596
 11
222.9334962864486
 21
148.7177540878692
  0
LINE
  5
10C
100
AcDbEntity
  8
PARTN
  6
ByLayer
 62
  256
370
   -1
100
AcDbLine
 10
143.9282107885483
 20
148.7177540878738
 11
143.9282918530043
 21
56.75375840282322
  0
LINE
  5
10D
100
AcDbEntity
  8
half part.
  6
ByLayer
 62
  256
370
   -1
100
AcDbLine
 10
143.9282918530043
 20
124.7422784155496
 11
143.9282918530043
 21
56.75381730266053
  0
LINE
  5
10E
100
AcDbEntity
  8
pre-hat
  6
ByLayer
 62
  256
370
   -1
100
AcDbLine
 10
143.9282107885556
 20
148.7177540878729
 11
143.9282107885628
 21
184.7177540878747
  0
LINE
  5
10F
100
AcDbEntity
  8
PARTN
  6
ByLayer
 62
  256
370
   -1
100
AcDbLine
 10
146.9282134329951
 20
145.717754087871
 11
183.9334962864486
 21
145.717754087871
  0
LINE
  5
110
100
AcDbEntity
  8
PARTN
  6
ByLayer
 62
  256
370
   -1
100
AcDbLine
 10
219.9334962864487
 20
145.7177540878701
 11
219.9334962864487
 21
148.717754087871
  0
LINE
  5
111
100
AcDbEntity
  8
PARTN
  6
ByLayer
 62
  256
370
   -1
100
AcDbLine
 10
183.9334962864486
 20
145.7177540878701
 11
183.9334962864486
 21
148.717754087872
  0
LINE
  5
112
100
AcDbEntity
  8
PARTN
  6
ByLayer
 62
  256
370
   -1
100
AcDbLine
 10
219.9334962864487
 20
148.7177540878701
 11
222.9334962864486
 21
148.7177540878692
  0
LINE
  5
113
100
AcDbEntity
  8
PARTN
  6
ByLayer
 62
  256
370
   -1
100
AcDbLine
 10
219.9334962864487
 20
184.7177540878729
 11
251.6269373070063
 21
184.7177540878738
  0
LINE
  5
114
100
AcDbEntity
  8
PARTN
  6
ByLayer
 62
  256
370
   -1
100
AcDbLine
 10
219.9334962864487
 20
187.7177540878738
 11
251.6269373070063
 21
187.7177540878738
  0
LINE
  5
115
100
AcDbEntity
  8
PARTN
  6
ByLayer
 62
  256
370
   -1
100
AcDbLine
 10
183.9334962864486
 20
184.7177540878729
 11
183.9334962864486
 21
187.7177540878738
  0
LINE
  5
116
100
AcDbEntity
  8
PARTN
  6
ByLayer
 62
  256
370
   -1
100
AcDbLine
 10
219.9334962864487
 20
184.7177540878738
 11
219.9334962864487
 21
187.7177540878738
  0
LINE
  5
117
100
AcDbEntity
  8
pre-hat
  6
ByLayer
 62
  256
370
   -1
100
AcDbLine
 10
219.9334962864487
 20
148.717754087871
 11
183.9334962864486
 21
148.717754087872
  0
LINE
  5
118
100
AcDbEntity
  8
pre-hat
  6
ByLayer
 62
  256
370
   -1
100
AcDbLine
 10
219.9334962864487
 20
184.7177540878729
 11
183.9334962864486
 21
184.7177540878729
  0
LINE
  5
119
100
AcDbEntity
  8
PARTN
  6
ByLayer
 62
  256
370
   -1
100
AcDbLine
 10
272.6321753190532
 20
134.7538173026596
 11
272.6321753190532
 21
56.71281300039391
  0
LINE
  5
11A
100
AcDbEntity
  8
PARTN
  6
ByLayer
 62
  256
370
   -1
100
AcDbLine
 10
275.6321753190532
 20
137.7538173026596
 11
275.6321753190532
 21
46.75381730266235
  0
LINE
  5
11B
100
AcDbEntity
  8
PARTN
  6
ByLayer
 62
  256
370
   -1
100
AcDbLine
 10
272.6269373053328
 20
494.6949757672627
 11
275.6269373053328
 21
494.6949757672637
  0
LINE
  5
11C
100
AcDbEntity
  8
PARTN
  6
ByLayer
 62
  256
370
   -1
100
AcDbLine
 10
272.6269373053328
 20
494.6949757672618
 11
272.6269373053328
 21
583.7538123958556
  0
LINE
  5
11D
100
AcDbEntity
  8
PARTN
  6
ByLayer
 62
  256
370
   -1
100
AcDbLine
 10
275.6269373053328
 20
494.6949757672618
 11
275.6269373053328
 21
583.7538123958556
  0
LINE
  5
11E
100
AcDbEntity
  8
PARTN
  6
ByLayer
 62
  256
370
   -1
100
AcDbLine
 10
157.1129064218803
 20
588.69497576726
 11
251.6291444808266
 21
588.69497576726
  0
LINE
  5
11F
100
AcDbEntity
  8
0
  6
ByLayer
 62
  256
370
   -1
100
AcDbLine
 10
26.00000257513966
 20
594.7538123966251
 11
26.00000257514694
 21
660.4355407477714
  0
LINE
  5
120
100
AcDbEntity
  8
0
  6
ByLayer
 62
  256
370
   -1
100
AcDbLine
 10
26.00000257514694
 20
521.4355407477451
 11
26.00000257514694
 21
679.5814824002964
  0
LINE
  5
121
100
AcDbEntity
  8
0
  6
ByLayer
 62
  256
370
   -1
100
AcDbLine
 10
553.1321753207266
 20
441.7538173026578
 11
563.1321753207267
 21
441.7538173026578
  0
LINE
  5
122
100
AcDbEntity
  8
0
  6
ByLayer
 62
  256
370
   -1
100
AcDbLine
 10
553.1321753207266
 20
452.7538173026596
 11
553.1321753207266
 21
531.6116767721378
  0
LINE
  5
123
100
AcDbEntity
  8
0
  6
ByLayer
 62
  256
370
   -1
100
AcDbLine
 10
562.1321753207267
 20
441.7538173026578
 11
562.1321753207267
 21
536.7538123958702
  0
LINE
  5
124
100
AcDbEntity
  8
0
  6
ByLayer
 62
  256
370
   -1
100
AcDbLine
 10
453.6321753190532
 20
594.7538123958702
 11
504.1321753207267
 21
594.7538123958702
  0
LINE
  5
125
100
AcDbEntity
  8
0
  6
ByLayer
 62
  256
370
   -1
100
AcDbLine
 10
443.6321753190532
 20
585.7538123958702
 11
498.9900396969933
 21
585.7538123958702
  0
LINE
  5
126
100
AcDbEntity
  8
0
  6
ByLayer
 62
  256
370
   -1
100
AcDbLine
 10
563.1321753190531
 20
440.4355407469783
 11
563.1321753207267
 21
441.7538173026578
  0
LINE
  5
127
100
AcDbEntity
  8
0
  6
ByLayer
 62
  256
370
   -1
100
AcDbLine
 10
443.6321753190532
 20
594.7538123958702
 11
374.1299855142461
 21
594.7538123958702
  0
LINE
  5
128
100
AcDbEntity
  8
0
  6
ByLayer
 62
  256
370
   -1
100
AcDbLine
 10
443.6321753190532
 20
590.2538123958702
 11
374.1299855142461
 21
590.2538123958702
  0
LINE
  5
129
100
AcDbEntity
  8
0
  6
ByLayer
 62
  256
370
   -1
100
AcDbLine
 10
504.1321753207267
 20
594.7538123958702
 11
562.1321753207267
 21
536.7538123958702
  0
LINE
  5
12A
100
AcDbEntity
  8
0
  6
ByLayer
 62
  256
370
   -1
100
AcDbLine
 10
498.9900396969933
 20
585.7538123958702
 11
553.1321753207266
 21
531.6116767721378
  0
LINE
  5
12B
100
AcDbEntity
  8
0
  6
ByLayer
 62
  256
370
   -1
100
AcDbLine
 10
251.6291444808266
 20
594.7538123958556
 11
36.00000257514694
 21
594.7538123958556
  0
LINE
  5
12C
100
AcDbEntity
  8
0
  6
ByLayer
 62
  256
370
   -1
100
AcDbLine
 10
271.1321753190532
 20
738.2538184147287
 11
271.1321753190496
 21
806.7538205153287
  0
LINE
  5
12D
100
AcDbEntity
  8
0
  6
ByLayer
 62
  256
370
   -1
100
AcDbLine
 10
224.7634218875428
 20
46.75381730266145
 11
224.7634218875428
 21
7.305297913e-07
  0
LINE
  5
12E
100
AcDbEntity
  8
0
  6
ByLayer
 62
  256
370
   -1
100
AcDbLine
 10
233.7634218875428
 20
46.75381730266145
 11
233.7634218875428
 21
7.305297913e-07
  0
LINE
  5
12F
100
AcDbEntity
  8
0
  6
ByLayer
 62
  256
370
   -1
100
AcDbLine
 10
106.1321753190386
 20
729.2538184147306
 11
106.1321753190423
 21
633.7512579616441
  0
LINE
  5
130
100
AcDbEntity
  8
0
  6
ByLayer
 62
  256
370
   -1
100
AcDbLine
 10
106.1321753190423
 20
601.5407316458304
 11
106.1321753190423
 21
594.7538123958556
  0
LINE
  5
131
100
AcDbEntity
  8
0
  6
ByLayer
 62
  256
370
   -1
100
AcDbLine
 10
101.6321753190386
 20
729.2538184147306
 11
101.6321753190423
 21
633.4530794912716
  0
LINE
  5
132
100
AcDbEntity
  8
0
  6
ByLayer
 62
  256
370
   -1
100
AcDbLine
 10
101.6321753190423
 20
601.5407316458304
 11
101.6321753190423
 21
594.7538123958556
  0
LINE
  5
133
100
AcDbEntity
  8
0
  6
ByLayer
 62
  256
370
   -1
100
AcDbLine
 10
359.3407878530306
 20
46.75381730266145
 11
359.3407878530306
 21
7.305334293e-07
  0
LINE
  5
134
100
AcDbEntity
  8
0
  6
ByLayer
 62
  256
370
   20
100
AcDbLine
 10
251.6291444808266
 20
594.7538123958556
 11
251.6291444808266
 21
588.69497576726
  0
LINE
  5
135
100
AcDbEntity
  8
0
  6
ByLayer
 62
  256
370
   20
100
AcDbLine
 10
275.6269373053328
 20
583.7538123958556
 11
272.6269373053328
 21
583.7538123958556
  0
LINE
  5
136
100
AcDbEntity
  8
0
  6
ByLayer
 62
  256
370
   20
100
AcDbLine
 10
355.8893959359521
 20
549.7807499040828
 11
352.8893959359521
 21
549.6485492379516
  0
LINE
  5
137
100
AcDbEntity
  8
0
  6
ByLayer
 62
  256
370
   20
100
AcDbLine
 10
374.1299855142461
 20
594.7538123958702
 11
374.1299855142461
 21
590.2538123958702
  0
LINE
  5
138
100
AcDbEntity
  8
0
  6
ByLayer
 62
  256
370
   20
100
AcDbLine
 10
106.1321753190423
 20
633.7512579616441
 11
101.6321753190423
 21
633.4530794912716
  0
LINE
  5
139
100
AcDbEntity
  8
0
  6
ByLayer
 62
  256
370
   20
100
AcDbLine
 10
106.1321753190423
 20
601.5407316458304
 11
101.6321753190423
 21
601.5407316458294
  0
LINE
  5
13A
100
AcDbEntity
  8
0
  6
ByLayer
 62
  256
370
   20
100
AcDbLine
 10
275.6321753190387
 20
440.666313406099
 11
272.6321753190386
 21
440.666313406099
  0
LINE
  5
13B
100
AcDbEntity
  8
0
  6
ByLayer
 62
  256
370
   20
100
AcDbLine
 10
275.6321753190387
 20
319.588967542878
 11
272.6321753190386
 21
319.588967542878
  0
LINE
  5
13C
100
AcDbEntity
  8
0
  6
ByLayer
 62
  256
370
   20
100
AcDbLine
 10
275.6321753190459
 20
308.588967542878
 11
272.6321753190459
 21
308.588967542878
  0
LINE
  5
13D
100
AcDbEntity
  8
0
  6
ByLayer
 62
  256
370
   20
100
AcDbLine
 10
355.8893959359521
 20
189.7177589939192
 11
352.889395935963
 21
189.7177589939174
  0
LINE
  5
13E
100
AcDbEntity
  8
0
  6
ByLayer
 62
  256
370
   20
100
AcDbLine
 10
353.1299855125653
 20
177.7177589939137
 11
350.1299855125653
 21
177.7177589939156
  0
LINE
  5
13F
100
AcDbEntity
  8
0
  6
ByLayer
 62
  256
370
   20
100
AcDbLine
 10
272.6321753190532
 20
187.717754087872
 11
275.6321753190532
 21
187.717754087872
  0
LINE
  5
140
100
AcDbEntity
  8
0
  6
ByLayer
 62
  256
370
   20
100
AcDbLine
 10
251.6269373070063
 20
187.7177540878738
 11
251.6269373070063
 21
184.7177540878738
  0
LINE
  5
141
100
AcDbEntity
  8
0
  6
ByLayer
 62
  256
370
   20
100
AcDbLine
 10
359.3407878530306
 20
7.305334293e-07
 11
350.2540982750361
 21
7.305334293e-07
  0
LINE
  5
142
100
AcDbEntity
  8
0
  6
ByLayer
 62
  256
370
   20
100
AcDbLine
 10
233.7634218875428
 20
7.305297913e-07
 11
224.7634218875428
 21
7.305297913e-07
  0
LINE
  5
143
100
AcDbEntity
  8
0
  6
ByLayer
 62
  256
370
   20
100
AcDbLine
 10
839.9239749287916
 20
815.4852140783695
 11
839.9239749287916
 21
810.9852140783695
  0
LINE
  5
144
100
AcDbEntity
  8
0
  6
ByLayer
 62
  256
370
   20
100
AcDbLine
 10
839.9239749287916
 20
733.7538184147251
 11
839.9239749287916
 21
729.2538184147251
  0
ENDBLK
  5
5D
330
5B
100
AcDbEntity
  8
0
100
AcDbBlockEnd
  0
ENDSEC
  0
SECTION
  2
ENTITIES
  0
LINE
  5
145
100
AcDbEntity
  8
0
  6
ByLayer
 62
  256
370
   -1
100
AcDbLine
 10
218.3906211379048
 20
749.5183685436034
 11
218.3906211379048
 21
817.0183706442024
  0
LINE
  5
146
100
AcDbEntity
  8
0
  6
ByLayer
 62
  256
370
   -1
100
AcDbLine
 10
228.3906211379085
 20
748.5183685436007
 11
228.3906211379048
 21
817.0183706442042
  0
LINE
  5
147
100
AcDbEntity
  8
0
  6
ByLayer
 62
  256
370
   -1
100
AcDbLine
 10
374.512544093895
 20
79.51756015417993
 11
374.5125440938987
 21
10.26455085940995
  0
LINE
  5
148
100
AcDbEntity
  8
0
  6
ByLayer
 62
  256
370
   -1
100
AcDbLine
 10
864.1824207476544
 20
825.7497642072461
 11
218.3906211379048
 21
825.7497642072415
  0
LINE
  5
149
100
AcDbEntity
  8
0
  6
ByLayer
 62
  256
370
   -1
100
AcDbLine
 10
864.1824207476544
 20
821.2497642072461
 11
467.8906211379085
 21
821.2497642072487
  0
LINE
  5
14A
100
AcDbEntity
  8
0
  6
ByLayer
 62
  256
370
   -1
100
AcDbLine
 10
864.1824207476544
 20
744.0183685436017
 11
467.8906211379085
 21
744.0183685436017
  0
LINE
  5
14B
100
AcDbEntity
  8
0
  6
ByLayer
 62
  256
370
   -1
100
AcDbLine
 10
864.1824207476544
 20
739.5183685436016
 11
477.8906211379157
 21
739.5183685436035
  0
LINE
  5
14C
100
AcDbEntity
  8
door
  6
ByLayer
 62
  256
370
   -1
100
AcDbLine
 10
275.8906211379158
 20
817.0183706442053
 11
228.3906211379048
 21
817.0183706442042
  0
LINE
  5
14D
100
AcDbEntity
  8
0
  6
ByLayer
 62
  256
370
   -1
100
AcDbLine
 10
295.3906211379122
 20
817.0183706442024
 11
228.3906211379048
 21
817.0183706442033
  0
LINE
  5
14E
100
AcDbEntity
  8
PARTN
  6
ByLayer
 62
  256
370
   -1
100
AcDbLine
 10
467.8906211379158
 20
821.2497642072487
 11
299.8906211379158
 21
821.2497642072479
  0
LINE
  5
14F
100
AcDbEntity
  8
0
  6
ByLayer
 62
  256
370
   -1
100
AcDbLine
 10
218.3906211379048
 20
826.0183706442033
 11
218.3906211379048
 21
748.5183685436079
  0
LINE
  5
150
100
AcDbEntity
  8
0
  6
ByLayer
 62
  256
370
   -1
100
AcDbLine
 10
228.3906211379085
 20
817.0183706442033
 11
228.3906211379048
 21
748.5183685436062
  0
LINE
  5
151
100
AcDbEntity
  8
door
  6
ByLayer
 62
  256
370
   -1
100
AcDbLine
 10
275.8906211379158
 20
748.5183685436053
 11
228.3906211379048
 21
748.5183685436062
  0
LINE
  5
152
100
AcDbEntity
  8
0
  6
ByLayer
 62
  256
370
   -1
100
AcDbLine
 10
295.3906211379158
 20
748.5183685436072
 11
108.9307844084482
 21
748.5183685436099
  0
LINE
  5
153
100
AcDbEntity
  8
0
  6
ByLayer
 62
  256
370
   -1
100
AcDbLine
 10
587.3906211379157
 20
116.0183674315379
 11
528.3906211379157
 21
57.01836743153798
  0
LINE
  5
154
100
AcDbEntity
  8
0
  6
ByLayer
 62
  256
370
   -1
100
AcDbLine
 10
577.3906211379157
 20
199.018367431538
 11
603.3906211379157
 21
199.018367431538
  0
LINE
  5
155
100
AcDbEntity
  8
0
  6
ByLayer
 62
  256
370
   -1
100
AcDbLine
 10
577.3906211379157
 20
250.0183674315362
 11
603.3906211379157
 21
250.0183674315362
  0
LINE
  5
156
100
AcDbEntity
  8
0
  6
ByLayer
 62
  256
370
   -1
100
AcDbLine
 10
577.3906211379157
 20
120.1605030552676
 11
524.2484855141896
 21
67.01836743153797
  0
LINE
  5
157
100
AcDbEntity
  8
0
  6
ByLayer
 62
  256
370
   -1
100
AcDbLine
 10
577.3906211379157
 20
131.2359553236641
 11
577.3906211379157
 21
196.7000908758567
  0
LINE
  5
158
100
AcDbEntity
  8
0
  6
ByLayer
 62
  256
370
   -1
100
AcDbLine
 10
577.3906211379157
 20
120.1605030552676
 11
577.3906211379157
 21
199.018367431538
  0
LINE
  5
159
100
AcDbEntity
  8
0
  6
ByLayer
 62
  256
370
   -1
100
AcDbLine
 10
587.3906211379157
 20
127.7000908758567
 11
587.3906211379157
 21
186.7000908758567
  0
LINE
  5
15A
100
AcDbEntity
  8
0
  6
ByLayer
 62
  256
370
   -1
100
AcDbLine
 10
587.3906211379157
 20
116.0183674315343
 11
587.3906211379157
 21
189.0183674315379
  0
LINE
  5
15B
100
AcDbEntity
  8
0
  6
ByLayer
 62
  256
370
   -1
100
AcDbLine
 10
603.3906211379157
 20
199.018367431538
 11
603.3906211379157
 21
247.7000908758549
  0
LINE
  5
15C
100
AcDbEntity
  8
0
  6
ByLayer
 62
  256
370
   -1
100
AcDbLine
 10
603.3906211379157
 20
199.018367431538
 11
603.3906211379157
 21
250.0183674315362
  0
LINE
  5
15D
100
AcDbEntity
  8
0
  6
ByLayer
 62
  256
370
   -1
100
AcDbLine
 10
587.3906211379157
 20
189.0183674315379
 11
613.3906211379158
 21
189.0183674315379
  0
LINE
  5
15E
100
AcDbEntity
  8
0
  6
ByLayer
 62
  256
370
   -1
100
AcDbLine
 10
50.25844839400949
 20
189.0183674323046
 11
24.25844839400949
 21
189.0183674323056
  0
LINE
  5
15F
100
AcDbEntity
  8
0
  6
ByLayer
 62
  256
370
   -1
100
AcDbLine
 10
60.25844839400949
 20
250.0183674323038
 11
34.25844839400949
 21
250.0183674323038
  0
LINE
  5
160
100
AcDbEntity
  8
0
  6
ByLayer
 62
  256
370
   -1
100
AcDbLine
 10
60.25844839400949
 20
199.0183674323047
 11
34.25844839400949
 21
199.0183674323056
  0
LINE
  5
161
100
AcDbEntity
  8
0
  6
ByLayer
 62
  256
370
   -1
100
AcDbLine
 10
34.25844839400949
 20
199.0183674323056
 11
34.25844839400949
 21
250.0183674323038
  0
LINE
  5
162
100
AcDbEntity
  8
0
  6
ByLayer
 62
  256
370
   -1
100
AcDbLine
 10
34.25844839400949
 20
199.0183674323056
 11
34.25844839400949
 21
247.7000908766225
  0
LINE
  5
163
100
AcDbEntity
  8
0
  6
ByLayer
 62
  256
370
   -1
100
AcDbLine
 10
50.25844839400949
 20
116.6496991437046
 11
50.25844839400949
 21
189.0183674323046
  0
LINE
  5
164
100
AcDbEntity
  8
0
  6
ByLayer
 62
  256
370
   -1
100
AcDbLine
 10
60.25844839401313
 20
120.7918347674307
 11
60.25844839400949
 21
199.0183674323047
  0
LINE
  5
165
100
AcDbEntity
  8
0
  6
ByLayer
 62
  256
370
   -1
100
AcDbLine
 10
50.25844839400949
 20
116.6496991437046
 11
109.8897801061771
 21
57.01836743153798
  0
LINE
  5
166
100
AcDbEntity
  8
0
  6
ByLayer
 62
  256
370
   -1
100
AcDbLine
 10
60.25844839401313
 20
120.7918347674307
 11
114.0729200321743
 21
66.97736312927043
  0
LINE
  5
167
100
AcDbEntity
  8
0
  6
ByLayer
 62
  256
370
   -1
100
AcDbLine
 10
299.8906211379158
 20
57.01836743153888
 11
258.0218677064017
 21
57.01836743153706
  0
LINE
  5
168
100
AcDbEntity
  8
0
  6
ByLayer
 62
  256
370
   -1
100
AcDbLine
 10
249.0218677064053
 20
57.01836743153706
 11
109.8897801061771
 21
57.01836743153798
  0
LINE
  5
169
100
AcDbEntity
  8
0
  6
ByLayer
 62
  256
370
   -1
100
AcDbLine
 10
524.2484855141752
 20
67.01836743153797
 11
377.4922719105902
 21
67.01836743153797
  0
LINE
  5
16A
100
AcDbEntity
  8
0
  6
ByLayer
 62
  256
370
   -1
100
AcDbLine
 10
528.3906211379157
 20
57.01836743153798
 11
383.5992336718932
 21
57.01836743153798
  0
LINE
  5
16B
100
AcDbEntity
  8
0
  6
ByLayer
 62
  256
370
   -1
100
AcDbLine
 10
587.3906211379157
 20
260.0183674315362
 11
577.3906211379157
 21
260.0183674315362
  0
LINE
  5
16C
100
AcDbEntity
  8
0
  6
ByLayer
 62
  256
370
   -1
100
AcDbLine
 10
587.3906211379157
 20
450.7000908758585
 11
577.3906211379157
 21
450.7000908758585
  0
LINE
  5
16D
100
AcDbEntity
  8
0
  6
ByLayer
 62
  256
370
   -1
100
AcDbLine
 10
587.3906211379157
 20
321.0183674315362
 11
577.3906211379157
 21
321.0183674315362
  0
LINE
  5
16E
100
AcDbEntity
  8
0
  6
ByLayer
 62
  256
370
   -1
100
AcDbLine
 10
577.3906211379157
 20
260.0183674315362
 11
613.3906211379158
 21
260.0183674315362
  0
LINE
  5
16F
100
AcDbEntity
  8
0
  6
ByLayer
 62
  256
370
   -1
100
AcDbLine
 10
577.3906211379157
 20
382.0183674315361
 11
603.3906211379157
 21
382.0183674315361
  0
LINE
  5
170
100
AcDbEntity
  8
0
  6
ByLayer
 62
  256
370
   -1
100
AcDbLine
 10
577.3906211379157
 20
331.0183674315362
 11
603.3906211379157
 21
331.0183674315362
  0
LINE
  5
171
100
AcDbEntity
  8
0
  6
ByLayer
 62
  256
370
   -1
100
AcDbLine
 10
577.3906211379157
 20
392.0183674315362
 11
613.3906211379158
 21
392.0183674315362
  0
LINE
  5
172
100
AcDbEntity
  8
0
  6
ByLayer
 62
  256
370
   -1
100
AcDbLine
 10
577.3906211379157
 20
382.0183674315361
 11
577.3906211379157
 21
463.0183674315361
  0
LINE
  5
173
100
AcDbEntity
  8
0
  6
ByLayer
 62
  256
370
   -1
100
AcDbLine
 10
587.3906211379157
 20
260.0183674315362
 11
587.3906211379157
 21
318.7000908758549
  0
LINE
  5
174
100
AcDbEntity
  8
0
  6
ByLayer
 62
  256
370
   -1
100
AcDbLine
 10
587.3906211379157
 20
260.0183674315362
 11
587.3906211379157
 21
321.0183674315362
  0
LINE
  5
175
100
AcDbEntity
  8
0
  6
ByLayer
 62
  256
370
   -1
100
AcDbLine
 10
587.3906211379157
 20
392.0183674315362
 11
587.3906211379157
 21
448.3818143201736
  0
LINE
  5
176
100
AcDbEntity
  8
0
  6
ByLayer
 62
  256
370
   -1
100
AcDbLine
 10
587.3906211379157
 20
392.0183674315362
 11
587.3906211379157
 21
450.7000908758548
  0
LINE
  5
177
100
AcDbEntity
  8
0
  6
ByLayer
 62
  256
370
   -1
100
AcDbLine
 10
603.3906211379157
 20
331.0183674315362
 11
603.3906211379157
 21
379.7000908758549
  0
LINE
  5
178
100
AcDbEntity
  8
0
  6
ByLayer
 62
  256
370
   -1
100
AcDbLine
 10
603.3906211379157
 20
331.0183674315362
 11
603.3906211379157
 21
382.0183674315361
  0
LINE
  5
179
100
AcDbEntity
  8
0
  6
ByLayer
 62
  256
370
   -1
100
AcDbLine
 10
613.3906211379158
 20
321.0183674315362
 11
613.3906211379158
 21
389.7000908758549
  0
LINE
  5
17A
100
AcDbEntity
  8
0
  6
ByLayer
 62
  256
370
   -1
100
AcDbLine
 10
613.3906211379158
 20
321.0183674315362
 11
613.3906211379158
 21
392.0183674315362
  0
LINE
  5
17B
100
AcDbEntity
  8
0
  6
ByLayer
 62
  256
370
   -1
100
AcDbLine
 10
587.3906211379157
 20
321.0183674315362
 11
613.3906211379158
 21
321.0183674315362
  0
LINE
  5
17C
100
AcDbEntity
  8
0
  6
ByLayer
 62
  256
370
   -1
100
AcDbLine
 10
477.8906211379157
 20
739.7869749805635
 11
477.8906211379157
 21
605.0183625247467
  0
LINE
  5
17D
100
AcDbEntity
  8
0
  6
ByLayer
 62
  256
370
   -1
100
AcDbLine
 10
467.8906211379158
 20
744.2869749805635
 11
467.8906211379158
 21
605.0183674315416
  0
LINE
  5
17E
100
AcDbEntity
  8
0
  6
ByLayer
 62
  256
370
   -1
100
AcDbLine
 10
467.8906211379231
 20
600.5183625247467
 11
467.8906211379158
 21
596.0183625247467
  0
LINE
  5
17F
100
AcDbEntity
  8
0
  6
ByLayer
 62
  256
370
   -1
100
AcDbLine
 10
60.25844839400949
 20
392.0183674323038
 11
24.25844839400949
 21
392.0183674323038
  0
LINE
  5
180
100
AcDbEntity
  8
0
  6
ByLayer
 62
  256
370
   -1
100
AcDbLine
 10
50.25844839400949
 20
321.0183674323038
 11
24.25844839400949
 21
321.0183674323038
  0
LINE
  5
181
100
AcDbEntity
  8
0
  6
ByLayer
 62
  256
370
   -1
100
AcDbLine
 10
60.25844839400949
 20
331.0183674323038
 11
34.25844839400949
 21
331.0183674323038
  0
LINE
  5
182
100
AcDbEntity
  8
0
  6
ByLayer
 62
  256
370
   -1
100
AcDbLine
 10
60.25844839400949
 20
382.0183674323038
 11
34.25844839400949
 21
382.0183674323038
  0
LINE
  5
183
100
AcDbEntity
  8
0
  6
ByLayer
 62
  256
370
   -1
100
AcDbLine
 10
60.25844839400949
 20
521.7000908766225
 11
34.25844839400949
 21
521.7000908766225
  0
LINE
  5
184
100
AcDbEntity
  8
0
  6
ByLayer
 62
  256
370
   -1
100
AcDbLine
 10
60.25844839400949
 20
531.7000908766225
 11
24.25844839400949
 21
531.7000908766225
  0
LINE
  5
185
100
AcDbEntity
  8
0
  6
ByLayer
 62
  256
370
   -1
100
AcDbLine
 10
60.25844839400949
 20
463.0183674323038
 11
34.25844839400949
 21
463.0183674323038
  0
LINE
  5
186
100
AcDbEntity
  8
0
  6
ByLayer
 62
  256
370
   -1
100
AcDbLine
 10
60.25844839400949
 20
450.7000908766225
 11
24.25844839400949
 21
450.7000908766225
  0
LINE
  5
187
100
AcDbEntity
  8
0
  6
ByLayer
 62
  256
370
   -1
100
AcDbLine
 10
60.25844839400949
 20
260.0183674323038
 11
24.25844839400949
 21
260.0183674323038
  0
LINE
  5
188
100
AcDbEntity
  8
0
  6
ByLayer
 62
  256
370
   -1
100
AcDbLine
 10
24.25844839400949
 20
321.0183674323038
 11
24.25844839400949
 21
392.0183674323038
  0
LINE
  5
189
100
AcDbEntity
  8
0
  6
ByLayer
 62
  256
370
   -1
100
AcDbLine
 10
24.25844839400949
 20
321.0183674323038
 11
24.25844839400949
 21
389.7000908766226
  0
LINE
  5
18A
100
AcDbEntity
  8
0
  6
ByLayer
 62
  256
370
   -1
100
AcDbLine
 10
34.25844839400949
 20
331.0183674323038
 11
34.25844839400949
 21
382.0183674323038
  0
LINE
  5
18B
100
AcDbEntity
  8
0
  6
ByLayer
 62
  256
370
   -1
100
AcDbLine
 10
34.25844839400949
 20
331.0183674323038
 11
34.25844839400949
 21
379.7000908766225
  0
LINE
  5
18C
100
AcDbEntity
  8
0
  6
ByLayer
 62
  256
370
   -1
100
AcDbLine
 10
34.25844839400949
 20
463.0183674323038
 11
34.25844839400949
 21
521.7000908766225
  0
LINE
  5
18D
100
AcDbEntity
  8
0
  6
ByLayer
 62
  256
370
   -1
100
AcDbLine
 10
34.25844839400949
 20
463.0183674323038
 11
34.25844839400949
 21
521.7000908766225
  0
LINE
  5
18E
100
AcDbEntity
  8
0
  6
ByLayer
 62
  256
370
   -1
100
AcDbLine
 10
24.25844839400949
 20
453.0183674323037
 11
24.25844839400949
 21
531.7000908766225
  0
LINE
  5
18F
100
AcDbEntity
  8
0
  6
ByLayer
 62
  256
370
   -1
100
AcDbLine
 10
24.25844839400949
 20
450.7000908766225
 11
24.25844839400949
 21
531.7000908766225
  0
LINE
  5
190
100
AcDbEntity
  8
0
  6
ByLayer
 62
  256
370
   -1
100
AcDbLine
 10
50.25844839400949
 20
392.0183674323038
 11
50.25844839400949
 21
450.7000908766225
  0
LINE
  5
191
100
AcDbEntity
  8
0
  6
ByLayer
 62
  256
370
   -1
100
AcDbLine
 10
50.25844839400949
 20
392.0183674323038
 11
50.25844839400949
 21
448.3818143209413
  0
LINE
  5
192
100
AcDbEntity
  8
0
  6
ByLayer
 62
  256
370
   -1
100
AcDbLine
 10
60.25844839400949
 20
382.0183674323038
 11
60.25844839400949
 21
463.0183674323038
  0
LINE
  5
193
100
AcDbEntity
  8
0
  6
ByLayer
 62
  256
370
   -1
100
AcDbLine
 10
50.25844839400949
 20
260.0183674323038
 11
50.25844839400949
 21
321.0183674323038
  0
LINE
  5
194
100
AcDbEntity
  8
0
  6
ByLayer
 62
  256
370
   -1
100
AcDbLine
 10
50.25844839400949
 20
531.7000908766225
 11
60.25844839400949
 21
531.7000908766225
  0
LINE
  5
195
100
AcDbEntity
  8
0
  6
ByLayer
 62
  256
370
   -1
100
AcDbLine
 10
50.25844839400949
 20
260.0183674323038
 11
60.25844839400949
 21
260.0183674323038
  0
LINE
  5
196
100
AcDbEntity
  8
0
  6
ByLayer
 62
  256
370
   -1
100
AcDbLine
 10
50.25844839400949
 20
260.0183674323038
 11
50.25844839400949
 21
318.7000908766226
  0
LINE
  5
197
100
AcDbEntity
  8
0
  6
ByLayer
 62
  256
370
   -1
100
AcDbLine
 10
60.25844839400949
 20
524.0183674323036
 11
60.25844839400949
 21
669.8352275063291
  0
LINE
  5
198
100
AcDbEntity
  8
0
  6
ByLayer
 62
  256
370
   -1
100
AcDbLine
 10
60.25844839400949
 20
521.7000908766225
 11
60.25844839400949
 21
685.7038969054432
  0
LINE
  5
199
100
AcDbEntity
  8
0
  6
ByLayer
 62
  256
370
   -1
100
AcDbLine
 10
60.25844839400949
 20
250.0183674323038
 11
60.25844839400949
 21
331.0183674323038
  0
LINE
  5
19A
100
AcDbEntity
  8
0
  6
ByLayer
 62
  256
370
   -1
100
AcDbLine
 10
24.25844839400949
 20
189.0183674323056
 11
24.25844839400949
 21
260.0183674323038
  0
LINE
  5
19B
100
AcDbEntity
  8
0
  6
ByLayer
 62
  256
370
   -1
100
AcDbLine
 10
24.25844839400949
 20
189.0183674323056
 11
24.25844839400949
 21
257.7000908766225
  0
LINE
  5
19C
100
AcDbEntity
  8
0
  6
ByLayer
 62
  256
370
   -1
100
AcDbLine
 10
60.25844839400949
 20
250.0183674323038
 11
60.25844839400949
 21
328.7000908766225
  0
LINE
  5
19D
100
AcDbEntity
  8
0
  6
ByLayer
 62
  256
370
   -1
100
AcDbLine
 10
577.3906211379157
 20
250.0183674315362
 11
577.3906211379157
 21
328.7000908758549
  0
LINE
  5
19E
100
AcDbEntity
  8
0
  6
ByLayer
 62
  256
370
   -1
100
AcDbLine
 10
613.3906211379158
 20
189.0183674315379
 11
613.3906211379158
 21
257.7000908758549
  0
LINE
  5
19F
100
AcDbEntity
  8
0
  6
ByLayer
 62
  256
370
   -1
100
AcDbLine
 10
613.3906211379158
 20
189.0183674315379
 11
613.3906211379158
 21
260.0183674315362
  0
LINE
  5
1A0
100
AcDbEntity
  8
0
  6
ByLayer
 62
  256
370
   -1
100
AcDbLine
 10
577.3906211379157
 20
250.0183674315362
 11
577.3906211379157
 21
331.0183674315362
  0
LINE
  5
1A1
100
AcDbEntity
  8
0
  6
ByLayer
 62
  256
370
   -1
100
AcDbLine
 10
296.8906211379158
 20
66.97736312927043
 11
114.0729200321743
 21
66.97736312927043
  0
LINE
  5
1A2
100
AcDbEntity
  8
0
  6
ByLayer
 62
  256
370
   -1
100
AcDbLine
 10
296.8875902979867
 20
739.5183685436072
 11
114.0729200321743
 21
739.5183685436072
  0
LINE
  5
1A3
100
AcDbEntity
  8
0
  6
ByLayer
 62
  256
370
   -1
100
AcDbLine
 10
50.25844839400949
 20
689.8460325291729
 11
108.9307844084482
 21
748.5183685436099
  0
LINE
  5
1A4
100
AcDbEntity
  8
0
  6
ByLayer
 62
  256
370
   -1
100
AcDbLine
 10
60.25844839400949
 20
685.7038969054432
 11
114.0729200321743
 21
739.5183685436072
  0
LINE
  5
1A5
100
AcDbEntity
  8
TABLE
  6
ByLayer
 62
  256
370
   -1
100
AcDbLine
 10
577.3906211379157
 20
461.7000908758567
 11
577.3906211379157
 21
479.0183674315616
  0
LINE
  5
1A6
100
AcDbEntity
  8
half part.
  6
ByLayer
 62
  256
370
   -1
100
AcDbLine
 10
380.1478417548146
 20
560.0453000329593
 11
380.1478417548146
 21
536.0183674315271
  0
LINE
  5
1A7
100
AcDbEntity
  8
PARTN
  6
ByLayer
 62
  256
370
   -1
100
AcDbLine
 10
380.1478417548146
 20
199.9823091227957
 11
380.1478417548146
 21
226.5444752110492
  0
LINE
  5
1A8
100
AcDbEntity
  8
PARTN
  6
ByLayer
 62
  256
370
   -1
100
AcDbLine
 10
380.147841754811
 20
262.5444752110519
 11
380.1478417548183
 21
491.0183674315097
  0
LINE
  5
1A9
100
AcDbEntity
  8
PARTN
  6
ByLayer
 62
  256
370
   -1
100
AcDbLine
 10
377.1478417548146
 20
416.3921955101808
 11
377.1478417548146
 21
494.0183674315115
  0
LINE
  5
1AA
100
AcDbEntity
  8
PARTN
  6
ByLayer
 62
  256
370
   -1
100
AcDbLine
 10
377.1478417548146
 20
416.3921955101808
 11
377.1478417548146
 21
494.0183674315115
  0
LINE
  5
1AB
100
AcDbEntity
  8
TABLE
  6
ByLayer
 62
  256
370
   -1
100
AcDbLine
 10
577.3906211379157
 20
461.7000908758567
 11
577.3906211379157
 21
479.0183674315616
  0
LINE
  5
1AC
100
AcDbEntity
  8
PARTN
  6
ByLayer
 62
  256
370
   -1
100
AcDbLine
 10
380.1478417548146
 20
372.8592291537183
 11
380.1478417548146
 21
380.0183674315761
  0
LINE
  5
1AD
100
AcDbEntity
  8
PARTN
  6
ByLayer
 62
  256
370
   -1
100
AcDbLine
 10
377.1478417548074
 20
336.8592291537173
 11
377.1478417548292
 21
416.3921955101817
  0
LINE
  5
1AE
100
AcDbEntity
  8
PARTN
  6
ByLayer
 62
  256
370
   -1
100
AcDbLine
 10
380.1478417548146
 20
372.8592291537192
 11
377.1478417548146
 21
372.8592291537192
  0
LINE
  5
1AF
100
AcDbEntity
  8
DOORS
  6
ByLayer
 62
  256
370
   -1
100
AcDbLine
 10
377.1478417548146
 20
372.8592291537174
 11
377.1478417548074
 21
336.8592291537173
  0
LINE
  5
1B0
100
AcDbEntity
  8
PARTITION
  6
ByLayer
 62
  256
370
   -3
100
AcDbLine
 10
377.1677642006193
 20
266.8535225785712
 11
377.1677642006193
 21
320.8535225785712
  0
LINE
  5
1B1
100
AcDbEntity
  8
PARTN
  6
ByLayer
 62
  256
370
   -1
100
AcDbLine
 10
377.1478417548219
 20
199.9823091227957
 11
377.1478417548146
 21
226.5444752110274
  0
LINE
  5
1B2
100
AcDbEntity
  8
PARTN
  6
ByLayer
 62
  256
370
   -1
100
AcDbLine
 10
380.1478417548146
 20
224.983116400313
 11
380.1478417548146
 21
226.5444752110483
  0
LINE
  5
1B3
100
AcDbEntity
  8
PARTN
  6
ByLayer
 62
  256
370
   -1
100
AcDbLine
 10
577.3906211395891
 20
494.0183674315206
 11
380.1478417548074
 21
494.0183674315115
  0
LINE
  5
1B4
100
AcDbEntity
  8
PARTN
  6
ByLayer
 62
  256
370
   -1
100
AcDbLine
 10
577.390621139582
 20
491.0183674315207
 11
380.1478417548219
 21
491.0183674315106
  0
LINE
  5
1B5
100
AcDbEntity
  8
PARTITION
  6
ByLayer
 62
  256
370
   -3
100
AcDbLine
 10
380.1478417548146
 20
530.0183674315116
 11
380.1478417548146
 21
533.0183674315634
  0
LINE
  5
1B6
100
AcDbEntity
  8
PARTN
  6
ByLayer
 62
  256
370
   -1
100
AcDbLine
 10
380.1478417548146
 20
530.0183674315106
 11
380.1478417548219
 21
560.0453000329602
  0
LINE
  5
1B7
100
AcDbEntity
  8
PARTN
  6
ByLayer
 62
  256
370
   -1
100
AcDbLine
 10
377.1478417548146
 20
530.0183674315116
 11
377.1478417548146
 21
559.913099366828
  0
LINE
  5
1B8
100
AcDbEntity
  8
PARTN
  6
ByLayer
 62
  256
370
   -1
100
AcDbLine
 10
377.1478417548146
 20
494.0183674315107
 11
377.1478417548146
 21
559.913099366828
  0
LINE
  5
1B9
100
AcDbEntity
  8
PARTN
  6
ByLayer
 62
  256
370
   -1
100
AcDbLine
 10
380.1478417548074
 20
494.0183674315107
 11
380.1478417548219
 21
560.0453000329602
  0
LINE
  5
1BA
100
AcDbEntity
  8
PARTN
  6
ByLayer
 62
  256
370
   -1
100
AcDbLine
 10
377.1478417548146
 20
262.5444752110519
 11
380.1478417548146
 21
262.5444752110519
  0
LINE
  5
1BB
100
AcDbEntity
  8
PARTN
  6
ByLayer
 62
  256
370
   -1
100
AcDbLine
 10
377.1478417548146
 20
226.5444752110492
 11
380.1478417548146
 21
226.5444752110492
  0
LINE
  5
1BC
100
AcDbEntity
  8
PARTN
  6
ByLayer
 62
  256
370
   -1
100
AcDbLine
 10
377.1478417548146
 20
262.5444752110519
 11
377.1478417548146
 21
336.8592291537183
  0
LINE
  5
1BD
100
AcDbEntity
  8
PARTN
  6
ByLayer
 62
  256
370
   -1
100
AcDbLine
 10
377.1478417548146
 20
262.5444752110519
 11
377.1478417548219
 21
372.8592291537192
  0
LINE
  5
1BE
100
AcDbEntity
  8
PARTN
  6
ByLayer
 62
  256
370
   -1
100
AcDbLine
 10
577.3906211379157
 20
185.0183674315871
 11
377.3884313314279
 21
185.018367431588
  0
LINE
  5
1BF
100
AcDbEntity
  8
PARTN
  6
ByLayer
 62
  256
370
   -1
100
AcDbLine
 10
577.3906211379085
 20
182.0175601540444
 11
374.3884313314207
 21
182.0175601540444
  0
LINE
  5
1C0
100
AcDbEntity
  8
PARTN
  6
ByLayer
 62
  256
370
   -1
100
AcDbLine
 10
374.4922719105903
 20
146.0175601541726
 11
374.4922719105903
 21
127.5175601541799
  0
LINE
  5
1C1
100
AcDbEntity
  8
PARTN
  6
ByLayer
 62
  256
370
   -1
100
AcDbLine
 10
377.4922719105902
 20
146.0175601541726
 11
377.4922719105902
 21
127.5175601541799
  0
LINE
  5
1C2
100
AcDbEntity
  8
PARTN
  6
ByLayer
 62
  256
370
   -1
100
AcDbLine
 10
377.4922719105902
 20
79.51756015417993
 11
374.4922719105903
 21
79.51756015417993
  0
LINE
  5
1C3
100
AcDbEntity
  8
PARTN
  6
ByLayer
 62
  256
370
   -1
100
AcDbLine
 10
377.4922719105902
 20
79.51756015417993
 11
377.4922719105902
 21
67.01836743153797
  0
LINE
  5
1C4
100
AcDbEntity
  8
win
  6
ByLayer
 62
    5
370
   -1
100
AcDbLine
 10
377.4922719105902
 20
127.5175601541799
 11
377.4922719105902
 21
79.51756015417993
  0
LINE
  5
1C5
100
AcDbEntity
  8
win
  6
ByLayer
 62
    5
370
   -1
100
AcDbLine
 10
374.4922719105903
 20
127.5175601541799
 11
374.4922719105903
 21
79.51756015417993
  0
LINE
  5
1C6
100
AcDbEntity
  8
PARTN
  6
ByLayer
 62
  256
370
   -1
100
AcDbLine
 10
377.4922719105902
 20
127.5175601541799
 11
374.4922719105903
 21
127.5175601541799
  0
LINE
  5
1C7
100
AcDbEntity
  8
PARTN
  6
ByLayer
 62
  256
370
   -1
100
AcDbLine
 10
374.4922719105903
 20
146.0175601541726
 11
377.4922719105902
 21
146.0175601541726
  0
LINE
  5
1C8
100
AcDbEntity
  8
PARTN
  6
ByLayer
 62
  256
370
   -1
100
AcDbLine
 10
374.3884313314279
 20
187.9823091227921
 11
374.3884313314207
 21
182.0175601540444
  0
LINE
  5
1C9
100
AcDbEntity
  8
PARTN
  6
ByLayer
 62
  256
370
   -1
100
AcDbLine
 10
377.3884313314279
 20
187.9823091227903
 11
377.3884313314279
 21
185.018367431588
  0
LINE
  5
1CA
100
AcDbEntity
  8
PARTN
  6
ByLayer
 62
  256
370
   -1
100
AcDbLine
 10
60.25844839401313
 20
598.9595258961375
 11
177.3725996166117
 21
598.9595258961384
  0
LINE
  5
1CB
100
AcDbEntity
  8
PARTN
  6
ByLayer
 62
  256
370
   -1
100
AcDbLine
 10
296.8875902979867
 20
644.0158080905024
 11
299.8875902996747
 21
644.0158080905034
  0
LINE
  5
1CC
100
AcDbEntity
  8
PARTN
  6
ByLayer
 62
  256
370
   -1
100
AcDbLine
 10
296.8875902979867
 20
644.0158080905015
 11
296.8875902979867
 21
739.5183685436072
  0
LINE
  5
1CD
100
AcDbEntity
  8
PARTN
  6
ByLayer
 62
  256
370
   -1
100
AcDbLine
 10
299.8875902980012
 20
644.0183625247331
 11
299.8875902980012
 21
722.0183674315634
  0
LINE
  5
1CE
100
AcDbEntity
  8
PARTN
  6
ByLayer
 62
  256
370
   -1
100
AcDbLine
 10
299.8875902980012
 20
644.0158080905024
 11
299.8933352502877
 21
821.2497642072487
  0
LINE
  5
1CF
100
AcDbEntity
  8
PARTN
  6
ByLayer
 62
  256
370
   -1
100
AcDbLine
 10
196.3581309595697
 20
292.0183674315371
 11
196.3581309595697
 21
197.9823042167476
  0
LINE
  5
1D0
100
AcDbEntity
  8
PARTN
  6
ByLayer
 62
  256
370
   -1
100
AcDbLine
 10
196.5905117118177
 20
429.0632801827745
 11
196.5905117118177
 21
331.0183674315352
  0
LINE
  5
1D1
100
AcDbEntity
  8
PARTN
  6
ByLayer
 62
  256
370
   -1
100
AcDbLine
 10
199.5905117118177
 20
465.0632801827736
 11
35.30416126679617
 21
465.0632801827736
  0
LINE
  5
1D2
100
AcDbEntity
  8
PARTN
  6
ByLayer
 62
  256
370
   -1
100
AcDbLine
 10
199.5905117118177
 20
468.0632801827735
 11
35.30416126679617
 21
468.0632801827745
  0
LINE
  5
1D3
100
AcDbEntity
  8
PARTN
  6
ByLayer
 62
  256
370
   -1
100
AcDbLine
 10
199.5905117118177
 20
598.9595258961365
 11
199.5905117118177
 21
504.0632801827736
  0
LINE
  5
1D4
100
AcDbEntity
  8
PARTN
  6
ByLayer
 62
  256
370
   -1
100
AcDbLine
 10
196.590511711825
 20
598.9595258961365
 11
196.5905117118177
 21
504.0632801827727
  0
LINE
  5
1D5
100
AcDbEntity
  8
PARTN
  6
ByLayer
 62
  256
370
   -1
100
AcDbLine
 10
60.25844839400949
 20
331.0183674315362
 11
196.5905117118177
 21
331.0183674315352
  0
LINE
  5
1D6
100
AcDbEntity
  8
PARTN
  6
ByLayer
 62
  256
370
   -1
100
AcDbLine
 10
60.25844839401313
 20
328.0183674315361
 11
199.5905117118177
 21
328.0183674315389
  0
LINE
  5
1D7
100
AcDbEntity
  8
PARTN
  6
ByLayer
 62
  256
370
   -1
100
AcDbLine
 10
177.3725996166117
 20
598.9595258961384
 11
181.3713522407429
 21
598.9595258961365
  0
LINE
  5
1D8
100
AcDbEntity
  8
PARTN
  6
ByLayer
 62
  256
370
   -1
100
AcDbLine
 10
60.25844839401313
 20
197.9823042167567
 11
181.1389714884949
 21
197.9823042167467
  0
LINE
  5
1D9
100
AcDbEntity
  8
PARTN
  6
ByLayer
 62
  256
370
   -1
100
AcDbLine
 10
60.25844839400949
 20
194.9823042167585
 11
180.3725996166117
 21
194.9823042167494
  0
LINE
  5
1DA
100
AcDbEntity
  8
PARTN
  6
ByLayer
 62
  256
370
   -1
100
AcDbLine
 10
199.5905117118322
 20
289.0183674315343
 11
199.5905117118177
 21
197.9823042167512
  0
LINE
  5
1DB
100
AcDbEntity
  8
PARTN
  6
ByLayer
 62
  256
370
   -1
100
AcDbLine
 10
199.5905117118177
 20
429.0632801827718
 11
196.590511711825
 21
429.0632801827718
  0
LINE
  5
1DC
100
AcDbEntity
  8
PARTN
  6
ByLayer
 62
  256
370
   -1
100
AcDbLine
 10
199.5905117118177
 20
504.0632801827736
 11
196.5905117118177
 21
504.0632801827727
  0
LINE
  5
1DD
100
AcDbEntity
  8
PARTN
  6
ByLayer
 62
  256
370
   -1
100
AcDbLine
 10
199.5905117118177
 20
429.0632801827745
 11
199.5905117118177
 21
328.0183674315389
  0
LINE
  5
1DE
100
AcDbEntity
  8
PARTN
  6
ByLayer
 62
  256
370
   -1
100
AcDbLine
 10
199.5905117118177
 20
468.0632801827745
 11
199.5905117118177
 21
465.0632801827736
  0
LINE
  5
1DF
100
AcDbEntity
  8
PARTN
  6
ByLayer
 62
  256
370
   -1
100
AcDbLine
 10
196.3581309595697
 20
292.0183674315371
 11
296.8906211379085
 21
292.0183674315362
  0
LINE
  5
1E0
100
AcDbEntity
  8
PARTN
  6
ByLayer
 62
  256
370
   -1
100
AcDbLine
 10
299.8906211379012
 20
450.9308635349756
 11
299.8906211379012
 21
329.8535176717545
  0
LINE
  5
1E1
100
AcDbEntity
  8
PARTN
  6
ByLayer
 62
  256
370
   -1
100
AcDbLine
 10
296.8906211379012
 20
450.9308635349756
 11
296.8906211379012
 21
329.8535176717545
  0
LINE
  5
1E2
100
AcDbEntity
  8
PARTN
  6
ByLayer
 62
  256
370
   -1
100
AcDbLine
 10
299.8906211379085
 20
318.8535176717545
 11
299.8906211379158
 21
197.9823042167485
  0
LINE
  5
1E3
100
AcDbEntity
  8
PARTN
  6
ByLayer
 62
  256
370
   -1
100
AcDbLine
 10
296.8906211379085
 20
318.8535176717545
 11
296.8906211379158
 21
197.9823042167485
  0
LINE
  5
1E4
100
AcDbEntity
  8
PARTN
  6
ByLayer
 62
  256
370
   -1
100
AcDbLine
 10
199.5905117118322
 20
289.0183674315343
 11
296.8906211379085
 21
289.0183674315362
  0
LINE
  5
1E5
100
AcDbEntity
  8
PARTN
  6
ByLayer
 62
  256
370
   -1
100
AcDbLine
 10
168.1866566074181
 20
158.9823042167494
 11
208.1919421053112
 21
158.9823042167485
  0
LINE
  5
1E6
100
AcDbEntity
  8
PARTN
  6
ByLayer
 62
  256
370
   -1
100
AcDbLine
 10
171.1866592518576
 20
155.9823042167476
 11
171.1867376718669
 21
67.01831117614108
  0
LINE
  5
1E7
100
AcDbEntity
  8
PARTN
  6
ByLayer
 62
  256
370
   -1
100
AcDbLine
 10
299.8906211379158
 20
148.0183674315361
 11
247.1919421053112
 21
148.0183674315361
  0
LINE
  5
1E8
100
AcDbEntity
  8
PARTN
  6
ByLayer
 62
  256
370
   -1
100
AcDbLine
 10
171.1866318957995
 20
194.9823042167503
 11
208.1919421053112
 21
194.9823042167494
  0
LINE
  5
1E9
100
AcDbEntity
  8
PARTN
  6
ByLayer
 62
  256
370
   -1
100
AcDbLine
 10
181.1389714884949
 20
197.9823042167467
 11
208.1919421053112
 21
197.9823042167503
  0
LINE
  5
1EA
100
AcDbEntity
  8
PARTN
  6
ByLayer
 62
  256
370
   -1
100
AcDbLine
 10
296.8906211379158
 20
145.0183674315361
 11
244.1919421053112
 21
145.0183674315352
  0
LINE
  5
1EB
100
AcDbEntity
  8
PARTN
  6
ByLayer
 62
  256
370
   -1
100
AcDbLine
 10
244.1919421053112
 20
145.0183674315352
 11
244.1919421053112
 21
155.9823042167467
  0
LINE
  5
1EC
100
AcDbEntity
  8
PARTN
  6
ByLayer
 62
  256
370
   -1
100
AcDbLine
 10
247.1919421053112
 20
148.0183674315361
 11
247.1919421053112
 21
158.9823042167457
  0
LINE
  5
1ED
100
AcDbEntity
  8
PARTN
  6
ByLayer
 62
  256
370
   -1
100
AcDbLine
 10
168.1866566074108
 20
158.9823042167503
 11
168.1867376718669
 21
67.01830853169974
  0
LINE
  5
1EE
100
AcDbEntity
  8
half part.
  6
ByLayer
 62
  256
370
   -1
100
AcDbLine
 10
168.1867376718669
 20
135.0068285444262
 11
168.1867376718669
 21
67.01836743153704
  0
LINE
  5
1EF
100
AcDbEntity
  8
pre-hat
  6
ByLayer
 62
  256
370
   -1
100
AcDbLine
 10
168.1866566074181
 20
158.9823042167494
 11
168.1866566074254
 21
194.9823042167512
  0
LINE
  5
1F0
100
AcDbEntity
  8
PARTN
  6
ByLayer
 62
  256
370
   -1
100
AcDbLine
 10
171.1866592518576
 20
155.9823042167476
 11
208.1919421053112
 21
155.9823042167476
  0
LINE
  5
1F1
100
AcDbEntity
  8
PARTN
  6
ByLayer
 62
  256
370
   -1
100
AcDbLine
 10
244.1919421053112
 20
155.9823042167467
 11
244.1919421053112
 21
158.9823042167476
  0
LINE
  5
1F2
100
AcDbEntity
  8
PARTN
  6
ByLayer
 62
  256
370
   -1
100
AcDbLine
 10
208.1919421053112
 20
155.9823042167467
 11
208.1919421053112
 21
158.9823042167485
  0
LINE
  5
1F3
100
AcDbEntity
  8
PARTN
  6
ByLayer
 62
  256
370
   -1
100
AcDbLine
 10
244.1919421053112
 20
158.9823042167467
 11
247.1919421053112
 21
158.9823042167457
  0
LINE
  5
1F4
100
AcDbEntity
  8
PARTN
  6
ByLayer
 62
  256
370
   -1
100
AcDbLine
 10
244.1919421053112
 20
194.9823042167494
 11
275.8853831258689
 21
194.9823042167503
  0
LINE
  5
1F5
100
AcDbEntity
  8
PARTN
  6
ByLayer
 62
  256
370
   -1
100
AcDbLine
 10
244.1919421053112
 20
197.9823042167503
 11
275.8853831258689
 21
197.9823042167503
  0
LINE
  5
1F6
100
AcDbEntity
  8
PARTN
  6
ByLayer
 62
  256
370
   -1
100
AcDbLine
 10
208.1919421053112
 20
194.9823042167494
 11
208.1919421053112
 21
197.9823042167503
  0
LINE
  5
1F7
100
AcDbEntity
  8
PARTN
  6
ByLayer
 62
  256
370
   -1
100
AcDbLine
 10
244.1919421053112
 20
194.9823042167503
 11
244.1919421053112
 21
197.9823042167503
  0
LINE
  5
1F8
100
AcDbEntity
  8
pre-hat
  6
ByLayer
 62
  256
370
   -1
100
AcDbLine
 10
244.1919421053112
 20
158.9823042167476
 11
208.1919421053112
 21
158.9823042167485
  0
LINE
  5
1F9
100
AcDbEntity
  8
pre-hat
  6
ByLayer
 62
  256
370
   -1
100
AcDbLine
 10
244.1919421053112
 20
194.9823042167494
 11
208.1919421053112
 21
194.9823042167494
  0
LINE
  5
1FA
100
AcDbEntity
  8
PARTN
  6
ByLayer
 62
  256
370
   -1
100
AcDbLine
 10
296.8906211379158
 20
145.0183674315361
 11
296.8906211379158
 21
66.97736312927043
  0
LINE
  5
1FB
100
AcDbEntity
  8
PARTN
  6
ByLayer
 62
  256
370
   -1
100
AcDbLine
 10
299.8906211379158
 20
148.0183674315361
 11
299.8906211379158
 21
57.01836743153888
  0
LINE
  5
1FC
100
AcDbEntity
  8
PARTN
  6
ByLayer
 62
  256
370
   -1
100
AcDbLine
 10
296.8853831241954
 20
504.9595258961393
 11
299.8853831241954
 21
504.9595258961402
  0
LINE
  5
1FD
100
AcDbEntity
  8
PARTN
  6
ByLayer
 62
  256
370
   -1
100
AcDbLine
 10
296.8853831241954
 20
504.9595258961383
 11
296.8853831241954
 21
594.0183625247321
  0
LINE
  5
1FE
100
AcDbEntity
  8
PARTN
  6
ByLayer
 62
  256
370
   -1
100
AcDbLine
 10
299.8853831241954
 20
504.9595258961383
 11
299.8853831241954
 21
594.0183625247321
  0
LINE
  5
1FF
100
AcDbEntity
  8
PARTN
  6
ByLayer
 62
  256
370
   -1
100
AcDbLine
 10
181.3713522407429
 20
598.9595258961365
 11
275.8875902996893
 21
598.9595258961365
  0
LINE
  5
200
100
AcDbEntity
  8
0
  6
ByLayer
 62
  256
370
   -1
100
AcDbLine
 10
50.25844839400221
 20
605.0183625255016
 11
50.25844839400949
 21
670.700090876648
  0
LINE
  5
201
100
AcDbEntity
  8
0
  6
ByLayer
 62
  256
370
   -1
100
AcDbLine
 10
50.25844839400949
 20
531.7000908766216
 11
50.25844839400949
 21
689.8460325291729
  0
LINE
  5
202
100
AcDbEntity
  8
0
  6
ByLayer
 62
  256
370
   -1
100
AcDbLine
 10
577.3906211395891
 20
452.0183674315343
 11
587.3906211395891
 21
452.0183674315343
  0
LINE
  5
203
100
AcDbEntity
  8
0
  6
ByLayer
 62
  256
370
   -1
100
AcDbLine
 10
577.3906211395891
 20
463.0183674315361
 11
577.3906211395891
 21
541.8762269010143
  0
LINE
  5
204
100
AcDbEntity
  8
0
  6
ByLayer
 62
  256
370
   -1
100
AcDbLine
 10
586.3906211395891
 20
452.0183674315343
 11
586.3906211395891
 21
547.0183625247467
  0
LINE
  5
205
100
AcDbEntity
  8
0
  6
ByLayer
 62
  256
370
   -1
100
AcDbLine
 10
477.8906211379157
 20
605.0183625247467
 11
528.3906211395891
 21
605.0183625247467
  0
LINE
  5
206
100
AcDbEntity
  8
0
  6
ByLayer
 62
  256
370
   -1
100
AcDbLine
 10
467.8906211379158
 20
596.0183625247467
 11
523.2484855158559
 21
596.0183625247467
  0
LINE
  5
207
100
AcDbEntity
  8
0
  6
ByLayer
 62
  256
370
   -1
100
AcDbLine
 10
587.3906211379157
 20
450.7000908758548
 11
587.3906211395891
 21
452.0183674315343
  0
LINE
  5
208
100
AcDbEntity
  8
0
  6
ByLayer
 62
  256
370
   -1
100
AcDbLine
 10
467.8906211379158
 20
605.0183625247467
 11
398.3884313331087
 21
605.0183625247467
  0
LINE
  5
209
100
AcDbEntity
  8
0
  6
ByLayer
 62
  256
370
   -1
100
AcDbLine
 10
467.8906211379158
 20
600.5183625247467
 11
398.3884313331087
 21
600.5183625247467
  0
LINE
  5
20A
100
AcDbEntity
  8
0
  6
ByLayer
 62
  256
370
   -1
100
AcDbLine
 10
528.3906211395891
 20
605.0183625247467
 11
586.3906211395891
 21
547.0183625247467
  0
LINE
  5
20B
100
AcDbEntity
  8
0
  6
ByLayer
 62
  256
370
   -1
100
AcDbLine
 10
523.2484855158559
 20
596.0183625247467
 11
577.3906211395891
 21
541.8762269010143
  0
LINE
  5
20C
100
AcDbEntity
  8
0
  6
ByLayer
 62
  256
370
   -1
100
AcDbLine
 10
275.8875902996893
 20
605.0183625247322
 11
60.25844839400949
 21
605.0183625247322
  0
LINE
  5
20D
100
AcDbEntity
  8
0
  6
ByLayer
 62
  256
370
   -1
100
AcDbLine
 10
295.3906211379158
 20
748.5183685436053
 11
295.3906211379122
 21
817.0183706442053
  0
LINE
  5
20E
100
AcDbEntity
  8
0
  6
ByLayer
 62
  256
370
   -1
100
AcDbLine
 10
249.0218677064053
 20
57.01836743153798
 11
249.0218677064053
 21
10.26455085940632
  0
LINE
  5
20F
100
AcDbEntity
  8
0
  6
ByLayer
 62
  256
370
   -1
100
AcDbLine
 10
258.0218677064054
 20
57.01836743153798
 11
258.0218677064054
 21
10.26455085940632
  0
LINE
  5
210
100
AcDbEntity
  8
0
  6
ByLayer
 62
  256
370
   -1
100
AcDbLine
 10
130.3906211379012
 20
739.5183685436072
 11
130.3906211379048
 21
644.0158080905206
  0
LINE
  5
211
100
AcDbEntity
  8
0
  6
ByLayer
 62
  256
370
   -1
100
AcDbLine
 10
130.3906211379048
 20
611.8052817747069
 11
130.3906211379048
 21
605.0183625247322
  0
LINE
  5
212
100
AcDbEntity
  8
0
  6
ByLayer
 62
  256
370
   -1
100
AcDbLine
 10
125.8906211379012
 20
739.5183685436072
 11
125.8906211379048
 21
643.7176296201482
  0
LINE
  5
213
100
AcDbEntity
  8
0
  6
ByLayer
 62
  256
370
   -1
100
AcDbLine
 10
125.8906211379048
 20
611.8052817747069
 11
125.8906211379048
 21
605.0183625247322
  0
LINE
  5
214
100
AcDbEntity
  8
0
  6
ByLayer
 62
  256
370
   -1
100
AcDbLine
 10
383.5992336718932
 20
57.01836743153798
 11
383.5992336718932
 21
10.26455085940995
  0
LINE
  5
215
100
AcDbEntity
  8
0
  6
ByLayer
 62
  256
370
   20
100
AcDbLine
 10
275.8875902996893
 20
605.0183625247322
 11
275.8875902996893
 21
598.9595258961365
  0
LINE
  5
216
100
AcDbEntity
  8
0
  6
ByLayer
 62
  256
370
   20
100
AcDbLine
 10
299.8853831241954
 20
594.0183625247321
 11
296.8853831241954
 21
594.0183625247321
  0
LINE
  5
217
100
AcDbEntity
  8
0
  6
ByLayer
 62
  256
370
   20
100
AcDbLine
 10
380.1478417548146
 20
560.0453000329593
 11
377.1478417548146
 21
559.913099366828
  0
LINE
  5
218
100
AcDbEntity
  8
0
  6
ByLayer
 62
  256
370
   20
100
AcDbLine
 10
398.3884313331087
 20
605.0183625247467
 11
398.3884313331087
 21
600.5183625247467
  0
LINE
  5
219
100
AcDbEntity
  8
0
  6
ByLayer
 62
  256
370
   20
100
AcDbLine
 10
130.3906211379048
 20
644.0158080905206
 11
125.8906211379048
 21
643.7176296201482
  0
LINE
  5
21A
100
AcDbEntity
  8
0
  6
ByLayer
 62
  256
370
   20
100
AcDbLine
 10
130.3906211379048
 20
611.8052817747069
 11
125.8906211379048
 21
611.805281774706
  0
LINE
  5
21B
100
AcDbEntity
  8
0
  6
ByLayer
 62
  256
370
   20
100
AcDbLine
 10
299.8906211379012
 20
450.9308635349756
 11
296.8906211379012
 21
450.9308635349756
  0
LINE
  5
21C
100
AcDbEntity
  8
0
  6
ByLayer
 62
  256
370
   20
100
AcDbLine
 10
299.8906211379012
 20
329.8535176717545
 11
296.8906211379012
 21
329.8535176717545
  0
LINE
  5
21D
100
AcDbEntity
  8
0
  6
ByLayer
 62
  256
370
   20
100
AcDbLine
 10
299.8906211379085
 20
318.8535176717545
 11
296.8906211379085
 21
318.8535176717545
  0
LINE
  5
21E
100
AcDbEntity
  8
0
  6
ByLayer
 62
  256
370
   20
100
AcDbLine
 10
380.1478417548146
 20
199.9823091227957
 11
377.1478417548256
 21
199.9823091227939
  0
LINE
  5
21F
100
AcDbEntity
  8
0
  6
ByLayer
 62
  256
370
   20
100
AcDbLine
 10
377.3884313314279
 20
187.9823091227903
 11
374.3884313314279
 21
187.9823091227921
  0
LINE
  5
220
100
AcDbEntity
  8
0
  6
ByLayer
 62
  256
370
   20
100
AcDbLine
 10
296.8906211379158
 20
197.9823042167485
 11
299.8906211379158
 21
197.9823042167485
  0
LINE
  5
221
100
AcDbEntity
  8
0
  6
ByLayer
 62
  256
370
   20
100
AcDbLine
 10
275.8853831258689
 20
197.9823042167503
 11
275.8853831258689
 21
194.9823042167503
  0
LINE
  5
222
100
AcDbEntity
  8
0
  6
ByLayer
 62
  256
370
   20
100
AcDbLine
 10
383.5992336718932
 20
10.26455085940995
 11
374.5125440938987
 21
10.26455085940995
  0
LINE
  5
223
100
AcDbEntity
  8
0
  6
ByLayer
 62
  256
370
   20
100
AcDbLine
 10
258.0218677064054
 20
10.26455085940632
 11
249.0218677064053
 21
10.26455085940632
  0
LINE
  5
224
100
AcDbEntity
  8
0
  6
ByLayer
 62
  256
370
   20
100
AcDbLine
 10
864.1824207476544
 20
825.7497642072461
 11
864.1824207476544
 21
821.2497642072461
  0
LINE
  5
225
100
AcDbEntity
  8
0
  6
ByLayer
 62
  256
370
   20
100
AcDbLine
 10
864.1824207476544
 20
744.0183685436017
 11
864.1824207476544
 21
739.5183685436016
  0
ENDSEC
  0
SECTION
  2
OBJECTS
  0
DICTIONARY
  5
C
330
0
100
AcDbDictionary
281
    1
  3
ACAD_GROUP
350
D
  0
DICTIONARY
  5
D
330
C
100
AcDbDictionary
281
    1
  0
ENDSEC
  0
EOF
